<?xml version="1.0" encoding="UTF-8"?>
<svg viewBox="0 0 460 250" xmlns="http://www.w3.org/2000/svg" xmlns:xlink="http://www.w3.org/1999/xlink">
 <defs>
  <clipPath id="ac">
   <path d="m616.53 1414.3h455.56v245.24h-455.56z"/>
  </clipPath>
  <clipPath id="y">
   <path d="m616.53 1378.6h455.56v245.24h-455.56z"/>
  </clipPath>
  <clipPath id="ab">
   <path transform="scale(1,-1)" d="m616.53-1764.9h455.56v245.24h-455.56z"/>
  </clipPath>
  <linearGradient id="a">
   <stop stop-color="#483e37" offset="0"/>
   <stop stop-color="#e9c6af" offset=".5"/>
   <stop stop-color="#483e37" offset="1"/>
  </linearGradient>
  <linearGradient id="x">
   <stop stop-color="#483737" offset="0"/>
   <stop stop-color="#e9afaf" offset=".3582"/>
   <stop stop-color="#483737" offset="1"/>
  </linearGradient>
  <linearGradient id="w" x1="445.75" x2="306.25" y1="608.98" y2="508.42" gradientTransform="matrix(1.2808 0 0 1.1884 -104.77 32.933)" gradientUnits="userSpaceOnUse">
   <stop stop-color="#e5ff80" offset="0"/>
   <stop stop-color="#112b00" offset="1"/>
  </linearGradient>
  <linearGradient id="v" x1="366.25" x2="211.38" y1="514.72" y2="450.3" gradientTransform="matrix(1.2808 0 0 .95945 -6.4347 133.4)" gradientUnits="userSpaceOnUse">
   <stop stop-color="#e5ff80" offset="0"/>
   <stop stop-color="#050" offset="1"/>
  </linearGradient>
  <linearGradient id="u" x2="0" y1="450.28" y2="611.16" gradientUnits="userSpaceOnUse">
   <stop stop-color="#454837" offset="0"/>
   <stop stop-color="#f6ffd5" offset=".42047"/>
   <stop stop-color="#454837" offset="1"/>
  </linearGradient>
  <linearGradient id="t" x1="306.05" x2="448.5" y1="562.73" y2="626.5" gradientUnits="userSpaceOnUse">
   <stop stop-color="#454837" offset="0"/>
   <stop stop-color="#efa" offset=".42047"/>
   <stop stop-color="#454837" offset="1"/>
  </linearGradient>
  <linearGradient id="s" x1="790.44" x2="746.11" y1="1583.3" y2="1519.6" gradientUnits="userSpaceOnUse">
   <stop stop-color="#f1a0e5" offset="0"/>
   <stop stop-color="#603080" offset="1"/>
  </linearGradient>
  <linearGradient id="r" x1="793.19" x2="728.16" y1="1516" y2="1506.3" gradientUnits="userSpaceOnUse">
   <stop stop-color="#fae" offset="0"/>
   <stop stop-color="#205" offset="1"/>
  </linearGradient>
  <linearGradient id="q" x2="0" y1="500.16" y2="705.57" gradientUnits="userSpaceOnUse">
   <stop stop-color="#453748" offset="0"/>
   <stop stop-color="#fac" offset=".30742"/>
   <stop stop-color="#00112b" offset="1"/>
  </linearGradient>
  <linearGradient id="p" x2="0" y1="461.77" y2="811.13" gradientUnits="userSpaceOnUse">
   <stop stop-color="#025" offset="0"/>
   <stop stop-color="#fac" offset=".41193"/>
   <stop stop-color="#6c5367" offset="1"/>
  </linearGradient>
  <linearGradient id="o" x1="305.48" x2="425.62" y1="510.61" y2="560.95" gradientTransform="matrix(.71944 0 0 .87446 266.89 5.5501)" gradientUnits="userSpaceOnUse">
   <stop stop-color="#5f475a" offset="0"/>
   <stop stop-color="#fac" offset="1"/>
  </linearGradient>
  <linearGradient id="n" x1="1063.5" x2="996.4" y1="1572" y2="1545.7" gradientUnits="userSpaceOnUse">
   <stop stop-color="#ff0" offset="0"/>
   <stop stop-color="#f60" offset="1"/>
  </linearGradient>
  <linearGradient id="m" x1="-1002.6" x2="-1048.7" y1="1575.5" y2="1585.4" gradientUnits="userSpaceOnUse">
   <stop stop-color="#e82e00" offset="0"/>
   <stop stop-color="#ff0" offset="1"/>
  </linearGradient>
  <linearGradient id="j" x1="897.35" x2="856.95" y1="1556" y2="1513.7" gradientUnits="userSpaceOnUse">
   <stop stop-color="#80b3ff" offset="0"/>
   <stop stop-color="#0b1728" offset="1"/>
  </linearGradient>
  <linearGradient id="g" x1="470.35" x2="396.46" y1="716.98" y2="705.79" gradientUnits="userSpaceOnUse">
   <stop stop-color="#80b3ff" offset="0"/>
   <stop stop-color="#025" offset="1"/>
  </linearGradient>
  <linearGradient id="e" x1="1190.1" x2="952.07" y1="529.8" y2="369.07" gradientUnits="userSpaceOnUse">
   <stop stop-color="#ff80b2" offset="0"/>
   <stop stop-color="#500" offset="1"/>
  </linearGradient>
  <linearGradient id="d" x1="1164.3" x2="931.54" y1="807.41" y2="754.36" gradientUnits="userSpaceOnUse">
   <stop stop-color="#f59" offset="0"/>
   <stop stop-color="#800000" offset="1"/>
  </linearGradient>
  <linearGradient id="aa" x2="0" y1="1602.4" y2="1420.6" gradientUnits="userSpaceOnUse">
   <stop stop-color="#18181b" offset="0"/>
   <stop stop-color="#18181b" stop-opacity=".36726" offset="1"/>
  </linearGradient>
  <linearGradient id="l" x1="368.49" x2="302.39" y1="582.23" y2="509.29" gradientTransform="matrix(-.18468 0 0 .20774 1077.1 1428.2)" gradientUnits="userSpaceOnUse" xlink:href="#a"/>
  <linearGradient id="k" x2="0" y1="1132.5" y2="1093.5" gradientUnits="userSpaceOnUse" xlink:href="#a"/>
  <linearGradient id="i" x1="859.33" x2="889.5" y1="1062.1" y2="1118.4" gradientUnits="userSpaceOnUse" xlink:href="#a"/>
  <linearGradient id="h" x1="460.61" x2="400.56" y1="691.22" y2="674.81" gradientUnits="userSpaceOnUse" xlink:href="#a"/>
  <linearGradient id="f" x1="499.92" x2="397.54" y1="726.52" y2="701.08" gradientUnits="userSpaceOnUse" xlink:href="#a"/>
  <linearGradient id="c" x2="0" y1="758.58" y2="983.62" gradientUnits="userSpaceOnUse" xlink:href="#x"/>
  <linearGradient id="b" x1="309.16" x2="428.67" y1="516.61" y2="562.8" gradientTransform="matrix(1.2736 0 0 1.1771 583.74 88.046)" gradientUnits="userSpaceOnUse" xlink:href="#x"/>
  <radialGradient id="z" cx="851.59" cy="1811.4" r="210.84" gradientTransform="matrix(1.0042 4.3148e-8 -3.4854e-8 .81115 -3.5434 207.89)" gradientUnits="userSpaceOnUse">
   <stop stop-color="#fc0" offset="0"/>
   <stop stop-color="#f4eed7" stop-opacity="0" offset="1"/>
  </radialGradient>
 </defs>
 <g transform="matrix(1.0098 0 0 1.0194 -629.9 -1537.2)">
  <path transform="translate(7.2802 129.37)" d="m604.62 1356.3h479.37v357.14h-479.37v-357.14z" clip-path="url(#y)" fill="#18181b"/>
  <g transform="matrix(1 0 0 -1 7.2802 3272.8)" clip-path="url(#ab)">
   <g transform="matrix(.40572 0 0 .35718 555.52 1293.5)">
    <g transform="translate(.33423 52.666)">
     <path d="m268.74 619.99v136.62h192.95v-136.62h-192.95z" fill="#fff6d5"/>
     <path d="m288.79 565.44c-6.9173 0-13.128 2.5262-17.57 6.536h188.03c-4.4431-4.0185-10.645-6.536-17.57-6.536h-152.89zm-21.493 11.141c-1.8964 3.0434-3.0018 6.5634-3.0018 10.287v27.258h201.84v-27.258c0-3.7233-1.0654-7.2434-2.9618-10.287h-195.88zm-2.9217 10.658h201.72v4.5678h-201.72v-4.5678zm0 15.263h201.72v4.5677h-201.72v-4.5677zm4.3626 17.491v11.995h192.95v-11.995h-192.95zm0 16.6v10.658h192.95v-10.658h-192.95zm0 15.263v10.658h192.95v-10.658h-192.95zm0 15.263v10.658h192.95v-10.658h-192.95zm0 15.263v10.658h192.95v-10.658h-192.95zm0 15.263v10.658h192.95v-10.658h-192.95zm0 15.263v10.658h192.95v-10.658h-192.95zm0 15.263v10.658h192.95v-10.658h-192.95zm0 15.263v13.183h192.95v-13.183h-192.95z" fill="url(#w)"/>
     <path d="m288.79 565.44c-13.555 0-24.495 9.5718-24.495 21.428v27.258h201.84v-27.258c0-11.856-10.94-21.428-24.495-21.428h-152.85z" fill="url(#v)"/>
     <path transform="matrix(1.2808 0 0 1.1884 -6.4281 30.343)" d="m278.81 450.28v41h22.719v-41h-22.719zm2.2812 45.906v114.97h18.188v-114.97h-18.188z" fill="url(#u)"/>
     <path transform="matrix(1.2808 0 0 1.1884 -6.4281 30.343)" d="m281.03 450.28v41h2.5v-41h-2.5zm15.781 0v41h2.5312v-41h-2.5312zm-13.969 45.906v114.97h2v-114.97h-2zm12.625 0v114.97h2.0312v-114.97h-2.0312z" fill="#fff" opacity=".5"/>
    </g>
    <path d="m319.66 562.66c-0.2274 1.3e-4 -0.44091 9e-3 -0.66631 0.0247-1.0819 0.0742-2.1276 0.3371-3.1094 0.83906-3.5434 1.8115-6.6543 5.6792-8.1191 10.044-3.0445 9.0718-3.0518 20.373 0 29.441 1.4654 4.3545 3.6131 9.9946 8.1191 9.9946h29.49c4.506 0 8.1438-4.4486 8.1438-9.9946 0 0 1.3031-13.921-1.53-19.397-5.74-11.094-17.283-16.615-27.59-20.088-1.4955-0.50395-3.1464-0.86466-4.7382-0.86373zm91.358 0.0247c-1.4573 0.0521-2.9514 0.3783-4.3187 0.83906-10.307 3.4734-21.85 8.9937-27.59 20.088-2.8331 5.476-1.53 19.397-1.53 19.397 0 5.5461 3.6377 9.9946 8.1438 9.9946h29.49c4.506 0 6.6536-5.6402 8.1191-9.9946 3.0518-9.0681 3.0446-20.369 0-29.441-1.4648-4.3648-4.5757-8.2325-8.1191-10.044-1.3092-0.66927-2.738-0.89118-4.1953-0.83906zm-83.486 14.116c1.0929-6.1e-4 2.2061 0.23681 3.2328 0.5676 7.0763 2.2799 15.012 5.8958 18.953 13.178 1.9451 3.5944 1.0365 12.734 1.0365 12.734 0 3.6404-2.4836 6.5644-5.5772 6.5644h-20.236c-3.0936 0-4.5712-3.7061-5.5773-6.5644-2.0952-5.9523-2.0902-13.368 0-19.323 1.0057-2.865 3.1445-5.4 5.5773-6.589 0.67412-0.32948 1.3795-0.49428 2.1223-0.54292l0.46888-0.0247zm76.033 0c0.15614 9e-5 0.31414 0.0143 0.46889 0.0247 0.7428 0.0486 1.4482 0.21344 2.1223 0.54292 2.4327 1.1891 4.5716 3.724 5.5773 6.589 2.0902 5.9547 2.0952 13.371 0 19.323-1.0061 2.8583-2.4836 6.5644-5.5773 6.5644h-20.236c-3.0936 0-5.5773-2.9239-5.5773-6.5644 0 0-0.90864-9.1395 1.0365-12.734 3.9408-7.2823 11.852-10.898 18.928-13.178 1.0267-0.33079 2.1646-0.56821 3.2575-0.5676zm-45.087 4.368c-1.8484 0-3.4654 1.003-4.4914 2.5665 0.42795 0.6372 0.82988 1.293 1.2092 1.9742 2.8331 5.0885 1.5547 18.015 1.5547 18.015 0 2.7379-1.0079 5.189-2.6406 6.8852 1.0309 1.4678 2.5863 2.3938 4.368 2.3938h14.116c1.7889 0 3.3868-0.91562 4.4174-2.3938-1.6327-1.6962-2.6652-4.1473-2.6652-6.8852 0 0-1.3031-12.927 1.53-18.015 0.38269-0.68732 0.80173-1.3318 1.2339-1.9742-1.026-1.5635-2.6677-2.5665-4.5161-2.5665h-14.116z" fill="url(#t)"/>
   </g>
   <g transform="matrix(1.174 0 0 1.174 -124.21 -275.82)">
    <path d="m746.25 1519.2h44.773v63.748h-44.773z" fill="#fff6d5"/>
    <path d="m750.29 1519.2c2e-3 0.029 0 0.058 0 0.088 0 1.121-1.186 2.027-2.6467 2.027-0.51521 0-0.99103-0.1156-1.3977-0.3113v3.623c0.40611-0.1948 0.88362-0.3112 1.3977-0.3112 1.4607 0 2.6467 0.9139 2.6467 2.0349s-1.186 2.0269-2.6467 2.0269c-0.51408 0-0.99159-0.1084-1.3977-0.3032v3.6149c0.40611-0.1948 0.88362-0.3112 1.3977-0.3112 1.4607 0 2.6467 0.9139 2.6467 2.0349s-1.186 2.0269-2.6467 2.0269c-0.51408 0-0.99159-0.1084-1.3977-0.3032v3.6149c0.40611-0.1948 0.88362-0.3112 1.3977-0.3112 1.4607 0 2.6467 0.9139 2.6467 2.0349s-1.186 2.0269-2.6467 2.0269c-0.51408 0-0.99159-0.1084-1.3977-0.3032v3.6229c0.40611-0.1934 0.88362-0.3032 1.3977-0.3032 1.4607 0 2.6467 0.898 2.6467 2.0189s-1.186 2.027-2.6467 2.027c-0.51408 0-0.99159-0.1084-1.3977-0.3033v3.623c0.40611-0.1949 0.88362-0.3033 1.3977-0.3033 1.4607 0 2.6467 0.906 2.6467 2.0269s-1.186 2.027-2.6467 2.027c-0.51408 0-0.99159-0.1084-1.3977-0.3033v3.615c0.40611-0.1948 0.88362-0.3033 1.3977-0.3033 1.4607 0 2.6467 0.906 2.6467 2.027s-1.186 2.0349-2.6467 2.0349c-0.51408 0-0.99159-0.1164-1.3977-0.3112v3.6149c0.40611-0.1948 0.88362-0.3032 1.3977-0.3032 1.4607 0 2.6467 0.9059 2.6467 2.0269s-1.186 2.0349-2.6467 2.0349c-0.51408 0-0.99159-0.1164-1.3977-0.3112v3.6149c0.40611-0.1948 0.88362-0.3032 1.3977-0.3032 1.4607 0 2.6467 0.9059 2.6467 2.0269s-1.186 2.0349-2.6467 2.0349c-0.51408 0-0.99159-0.1164-1.3977-0.3112v3.6309c0.40667-0.1956 0.88249-0.3112 1.3977-0.3112 1.4607 0 2.6467 0.9059 2.6467 2.0269 0 0.027 1e-3 0.053 0 0.08h3.1126c-2e-3 -0.029-0.01-0.058-0.01-0.088 0-1.1209 1.186-2.0269 2.6467-2.0269s2.6467 0.906 2.6467 2.0269c0 0.03 2e-3 0.059 0 0.088h3.1126c-1e-3 -0.027-0.01-0.053-0.01-0.08 0-1.121 1.186-2.0269 2.6467-2.0269s2.6467 0.9059 2.6467 2.0269c0 0.027 1e-3 0.053 0 0.08h3.1126c-2e-3 -0.029-0.01-0.058-0.01-0.088 0-1.1209 1.186-2.0269 2.6467-2.0269s2.6467 0.906 2.6467 2.0269c0 0.03 2e-3 0.059 0 0.088h3.1126c-1e-3 -0.027-0.01-0.053-0.01-0.08 0-1.121 1.186-2.0269 2.6467-2.0269s2.6467 0.9059 2.6467 2.0269c0 0.027 1e-3 0.053 0 0.08h3.1126c-2e-3 -0.029-0.01-0.058-0.01-0.088 0-1.1209 1.186-2.0269 2.6467-2.0269 0.51521 0 0.99103 0.1156 1.3977 0.3112v-3.6229c-0.40611 0.1948-0.88362 0.3112-1.3977 0.3112-1.4607 0-2.6467-0.9139-2.6467-2.0349s1.186-2.0269 2.6467-2.0269c0.51408 0 0.99159 0.1084 1.3977 0.3032v-3.6149c-0.40611 0.1948-0.88362 0.3112-1.3977 0.3112-1.4607 0-2.6467-0.9139-2.6467-2.0349s1.186-2.0269 2.6467-2.0269c0.51408 0 0.99159 0.1084 1.3977 0.3032v-3.6149c-0.40619 0.1948-0.8837 0.3112-1.3978 0.3112-1.4607 0-2.6467-0.9139-2.6467-2.0349s1.186-2.027 2.6467-2.027c0.51408 0 0.99159 0.1085 1.3977 0.3033v-3.6229c-0.40611 0.1948-0.88362 0.3032-1.3977 0.3032-1.4607 0-2.6467-0.9059-2.6467-2.0269s1.186-2.019 2.6467-2.019c0.51408 0 0.99159 0.1098 1.3977 0.3033v-3.623c-0.40611 0.1949-0.88362 0.3033-1.3977 0.3033-1.4607 0-2.6467-0.906-2.6467-2.027s1.186-2.0269 2.6467-2.0269c0.51408 0 0.99159 0.1084 1.3977 0.3033v-3.615c-0.40611 0.1948-0.88362 0.3032-1.3977 0.3032-1.4607 0-2.6467-0.9059-2.6467-2.0269s1.186-2.0349 2.6467-2.0349c0.51408 0 0.99159 0.1164 1.3977 0.3112v-3.6149c-0.40611 0.1948-0.88362 0.3032-1.3977 0.3032-1.4607 0-2.6467-0.9059-2.6467-2.0269s1.186-2.0349 2.6467-2.0349c0.51408 0 0.99159 0.1164 1.3977 0.3112v-3.6149c-0.40611 0.1948-0.88362 0.3032-1.3977 0.3032-1.4607 0-2.6467-0.9059-2.6467-2.0269s1.186-2.0349 2.6467-2.0349c0.51408 0 0.99159 0.1164 1.3977 0.3112v-3.6309c-0.40667 0.1956-0.88249 0.3112-1.3977 0.3112-1.4607 0-2.6467-0.906-2.6467-2.0269 0-0.027 9e-3 -0.053 0.01-0.08h-3.1126c2e-3 0.029 0 0.058 0 0.088 0 1.121-1.186 2.027-2.6467 2.027s-2.6467-0.906-2.6467-2.027c0-0.03 8e-3 -0.058 0.01-0.088h-3.1126c1e-3 0.027 0 0.053 0 0.08 0 1.1209-1.186 2.0269-2.6467 2.0269s-2.6467-0.906-2.6467-2.0269c0-0.027 9e-3 -0.053 0.01-0.08h-3.1126c2e-3 0.029 0 0.058 0 0.088 0 1.121-1.186 2.027-2.6467 2.027s-2.6467-0.906-2.6467-2.027c0-0.03 8e-3 -0.058 0.01-0.088h-3.1126c1e-3 0.027 0 0.053 0 0.08 0 1.1209-1.186 2.0269-2.6467 2.0269s-2.6467-0.906-2.6467-2.0269c0-0.027 9e-3 -0.053 0.01-0.08h-3.1126zm5.7494 5.1152c1.4607 0 2.6467 0.9139 2.6467 2.0349s-1.186 2.0269-2.6467 2.0269-2.6467-0.9059-2.6467-2.0269 1.186-2.0349 2.6467-2.0349zm8.3961 0c1.4607 0 2.6467 0.9139 2.6467 2.0349s-1.186 2.0269-2.6467 2.0269-2.6467-0.9059-2.6467-2.0269 1.186-2.0349 2.6467-2.0349zm8.3961 0c1.4607 0 2.6467 0.9139 2.6467 2.0349s-1.186 2.0269-2.6467 2.0269-2.6467-0.9059-2.6467-2.0269 1.186-2.0349 2.6467-2.0349zm8.3961 0c1.4607 0 2.6467 0.9139 2.6467 2.0349s-1.186 2.0269-2.6467 2.0269-2.6467-0.9059-2.6467-2.0269 1.186-2.0349 2.6467-2.0349zm-25.188 7.0623c1.4607 0 2.6467 0.9139 2.6467 2.0349s-1.186 2.0269-2.6467 2.0269-2.6467-0.9059-2.6467-2.0269 1.186-2.0349 2.6467-2.0349zm8.3961 0c1.4607 0 2.6467 0.9139 2.6467 2.0349s-1.186 2.0269-2.6467 2.0269-2.6467-0.9059-2.6467-2.0269 1.186-2.0349 2.6467-2.0349zm8.3961 0c1.4607 0 2.6467 0.9139 2.6467 2.0349s-1.186 2.0269-2.6467 2.0269-2.6467-0.9059-2.6467-2.0269 1.186-2.0349 2.6467-2.0349zm8.3961 0c1.4607 0 2.6467 0.9139 2.6467 2.0349s-1.186 2.0269-2.6467 2.0269-2.6467-0.9059-2.6467-2.0269 1.186-2.0349 2.6467-2.0349zm-25.188 7.0623c1.4607 0 2.6467 0.9139 2.6467 2.0349s-1.186 2.0269-2.6467 2.0269-2.6467-0.9059-2.6467-2.0269 1.186-2.0349 2.6467-2.0349zm8.3961 0c1.4607 0 2.6467 0.9139 2.6467 2.0349s-1.186 2.0269-2.6467 2.0269-2.6467-0.9059-2.6467-2.0269 1.186-2.0349 2.6467-2.0349zm8.3961 0c1.4607 0 2.6467 0.9139 2.6467 2.0349s-1.186 2.0269-2.6467 2.0269-2.6467-0.9059-2.6467-2.0269 1.186-2.0349 2.6467-2.0349zm8.3961 0c1.4607 0 2.6467 0.9139 2.6467 2.0349s-1.186 2.0269-2.6467 2.0269-2.6467-0.9059-2.6467-2.0269 1.186-2.0349 2.6467-2.0349zm-25.188 7.0703c1.4607 0 2.6467 0.906 2.6467 2.0269s-1.186 2.027-2.6467 2.027-2.6467-0.906-2.6467-2.027 1.186-2.0269 2.6467-2.0269zm16.792 0c1.4607 0 2.6467 0.906 2.6467 2.0269s-1.186 2.027-2.6467 2.027-2.6467-0.906-2.6467-2.027 1.186-2.0269 2.6467-2.0269zm-8.3961 0.01c1.4607 0 2.6467 0.8979 2.6467 2.0189s-1.186 2.027-2.6467 2.027-2.6467-0.906-2.6467-2.027 1.186-2.0189 2.6467-2.0189zm16.792 0c1.4607 0 2.6467 0.8979 2.6467 2.0189s-1.186 2.027-2.6467 2.027-2.6467-0.906-2.6467-2.027 1.186-2.0189 2.6467-2.0189zm-25.188 7.0623c1.4607 0 2.6467 0.898 2.6467 2.019s-1.186 2.0269-2.6467 2.0269-2.6467-0.9059-2.6467-2.0269 1.186-2.019 2.6467-2.019zm8.3961 0c1.4607 0 2.6467 0.906 2.6467 2.0269s-1.186 2.027-2.6467 2.027-2.6467-0.906-2.6467-2.027 1.186-2.0269 2.6467-2.0269zm8.3961 0c1.4607 0 2.6467 0.898 2.6467 2.019s-1.186 2.0269-2.6467 2.0269-2.6467-0.9059-2.6467-2.0269 1.186-2.019 2.6467-2.019zm8.3961 0c1.4607 0 2.6467 0.906 2.6467 2.0269s-1.186 2.027-2.6467 2.027-2.6467-0.906-2.6467-2.027 1.186-2.0269 2.6467-2.0269zm-25.188 7.0623c1.4607 0 2.6467 0.906 2.6467 2.027s-1.186 2.0349-2.6467 2.0349-2.6467-0.9139-2.6467-2.0349 1.186-2.027 2.6467-2.027zm8.3961 0c1.4607 0 2.6467 0.906 2.6467 2.027s-1.186 2.0349-2.6467 2.0349-2.6467-0.9139-2.6467-2.0349 1.186-2.027 2.6467-2.027zm8.3961 0c1.4607 0 2.6467 0.906 2.6467 2.027s-1.186 2.0349-2.6467 2.0349-2.6467-0.9139-2.6467-2.0349 1.186-2.027 2.6467-2.027zm8.3961 0c1.4607 0 2.6467 0.906 2.6467 2.027s-1.186 2.0349-2.6467 2.0349-2.6467-0.9139-2.6467-2.0349 1.186-2.027 2.6467-2.027zm-25.188 7.0624c1.4607 0 2.6467 0.9059 2.6467 2.0269s-1.186 2.0349-2.6467 2.0349-2.6467-0.9139-2.6467-2.0349 1.186-2.0269 2.6467-2.0269zm8.3961 0c1.4607 0 2.6467 0.9059 2.6467 2.0269s-1.186 2.0349-2.6467 2.0349-2.6467-0.9139-2.6467-2.0349 1.186-2.0269 2.6467-2.0269zm8.3961 0c1.4607 0 2.6467 0.9059 2.6467 2.0269s-1.186 2.0349-2.6467 2.0349-2.6467-0.9139-2.6467-2.0349 1.186-2.0269 2.6467-2.0269zm8.3961 0c1.4607 0 2.6467 0.9059 2.6467 2.0269s-1.186 2.0349-2.6467 2.0349-2.6467-0.9139-2.6467-2.0349 1.186-2.0269 2.6467-2.0269zm-25.188 7.0623c1.4607 0 2.6467 0.9059 2.6467 2.0269s-1.186 2.0349-2.6467 2.0349-2.6467-0.9139-2.6467-2.0349 1.186-2.0269 2.6467-2.0269zm8.3961 0c1.4607 0 2.6467 0.9059 2.6467 2.0269s-1.186 2.0349-2.6467 2.0349-2.6467-0.9139-2.6467-2.0349 1.186-2.0269 2.6467-2.0269zm8.3961 0c1.4607 0 2.6467 0.9059 2.6467 2.0269s-1.186 2.0349-2.6467 2.0349-2.6467-0.9139-2.6467-2.0349 1.186-2.0269 2.6467-2.0269zm8.3961 0c1.4607 0 2.6467 0.9059 2.6467 2.0269s-1.186 2.0349-2.6467 2.0349-2.6467-0.9139-2.6467-2.0349 1.186-2.0269 2.6467-2.0269z" fill="url(#s)"/>
    <path d="m750.47 1504.3c-3.2226 0-5.8236 0.9494-5.8236 4.2064v9.1683h47.987v-9.1683c0-3.257-2.601-4.2064-5.8236-4.2064h-36.34z" fill="url(#r)"/>
    <g transform="matrix(.31721 0 0 .25536 591.89 1376.3)">
     <g transform="translate(-.26333 1.0533)">
      <path d="m513.36 500.16v52.351h33.566v-52.351h-33.566z" fill="url(#q)"/>
      <path transform="translate(0 452.36)" d="m516.31 47.781v52.375h3.7812v-52.375h-3.7812zm23.844 0v52.375h3.8125v-52.375h-3.8125z" fill="#fff" opacity=".5"/>
     </g>
     <g transform="translate(-.5149 -1.9204)">
      <path d="m516.5 561.46v249.67h27.783v-249.67h-27.783z" fill="url(#p)"/>
      <path d="m519.16 561.45v249.69h3.0938v-249.69h-3.0938zm19.344 0v249.69h3.125v-249.69h-3.125z" fill="#fff" opacity=".5"/>
     </g>
     <path d="m496.86 452.06c-0.1636 1.1e-4 -0.31721 8e-3 -0.47937 0.0216-0.7784 0.0649-1.5307 0.29478-2.2371 0.73372-2.5493 1.5841-4.7874 4.9663-5.8412 8.7831-2.1904 7.933-2.1956 17.815 0 25.745 1.0543 3.8078 2.5994 8.74 5.8412 8.74h21.217c3.2418 0 5.859-3.8901 5.859-8.74 0 0 0.9375-12.173-1.1008-16.962-4.1296-9.7016-12.434-14.529-19.849-17.566-1.0759-0.44068-2.2636-0.75611-3.4088-0.7553zm65.727 0.0216c-1.0484 0.0456-2.1234 0.33081-3.107 0.73372-7.4152 3.0373-15.72 7.8646-19.849 17.566-2.0383 4.7885-1.1008 16.962-1.1008 16.962 0 4.8498 2.6171 8.74 5.859 8.74h21.217c3.2418 0 4.7869-4.9321 5.8412-8.74 2.1956-7.9297 2.1904-17.812 0-25.745-1.0539-3.8168-3.292-7.199-5.8412-8.7831-0.94187-0.58525-1.9698-0.7793-3.0183-0.73372zm-60.063 12.344c0.78626-5.3e-4 1.5872 0.20708 2.3258 0.49635 5.091 1.9937 10.8 5.1557 13.635 11.524 1.3994 3.1432 0.74569 11.135 0.74569 11.135 0 3.1834-1.7868 5.7403-4.0125 5.7403h-14.559c-2.2257 0-3.2887-3.2408-4.0125-5.7403-1.5074-5.2051-1.5038-11.69 0-16.897 0.72354-2.5054 2.2623-4.7221 4.0125-5.7619 0.48499-0.28812 0.99247-0.43223 1.5269-0.47477 0.11133-9e-3 0.225-0.0215 0.33733-0.0216zm54.701 0c0.11233 8e-5 0.22601 0.0125 0.33734 0.0216 0.5344 0.0425 1.0419 0.18665 1.5269 0.47477 1.7502 1.0398 3.289 3.2565 4.0125 5.7619 1.5038 5.2072 1.5074 11.692 0 16.897-0.72384 2.4995-1.7868 5.7403-4.0125 5.7403h-14.559c-2.2257 0-4.0125-2.5569-4.0125-5.7403 0 0-0.65371-7.9921 0.74569-11.135 2.8352-6.3681 8.5267-9.5301 13.618-11.524 0.73867-0.28927 1.5573-0.49688 2.3436-0.49635zm-32.437 3.8197c-1.3298 0-2.4931 0.87711-3.2313 2.2443 0.30789 0.55721 0.59705 1.1306 0.86997 1.7264 2.0383 4.4497 1.1185 15.753 1.1185 15.753 0 2.3942-0.72511 4.5376-1.8997 6.0209 0.74166 1.2836 1.8607 2.0933 3.1425 2.0933h10.156c1.287 0 2.4366-0.80068 3.178-2.0933-1.1746-1.4833-1.9175-3.6267-1.9175-6.0209 0 0-0.93751-11.304 1.1008-15.753 0.27532-0.60104 0.5768-1.1646 0.88772-1.7264-0.73817-1.3672-1.9192-2.2443-3.2491-2.2443h-10.156z" fill="url(#o)"/>
    </g>
   </g>
   <g transform="matrix(1.5644 0 0 1.8336 -610.78 -1320.7)">
    <path d="m1041.7 1546c2.4622 0.095 4.4066 1.6421 4.4066 3.5445v24.539h-49.587v-24.539c0-1.9637 2.0724-3.5445 4.6469-3.5445h40.533z" fill="#fff6d5"/>
    <path d="m1041.6551,1545.96c2.4622.095 4.4066,1.6429 4.4066,3.5452v24.5367h-2.5565c-1.0491-2.6843-2.2695-6.3395-2.2361-8.7709 .046-3.3755 3.1915-6.2763 3.2121-9.6521 .017-2.8251-1.926-7.4911-2.9062-9.6589h.08zm-1.9811,0c1.1104,2.1584 3.3128,6.7994 3.3213,9.6589 .01,3.4004-3.4364,6.2518-3.4597,9.6521-.017,2.4542 1.3604,6.0958 2.542,8.7709h-4.5013c-1.0491-2.6843-2.2695-6.3395-2.2361-8.7709 .046-3.3755 3.1916-6.2763 3.2121-9.6521 .017-2.8251-1.9259-7.4911-2.9061-9.6589h4.0278zm-5.9289,0c1.1105,2.1584 3.3128,6.7994 3.3214,9.6589 .01,3.4004-3.4291,6.2518-3.4525,9.6521-.017,2.4536 1.3554,6.096 2.5347,8.7709h-4.5012c-1.0491-2.6843-2.2695-6.3395-2.2361-8.7709 .046-3.3755 3.1915-6.2763 3.2121-9.6521 .017-2.8251-1.926-7.4911-2.9062-9.6589h4.0278zm-5.9288,0c1.1125,2.1584 3.3201,6.7994 3.3286,9.6589 .01,3.4004-3.4364,6.2518-3.4597,9.6521-.017,2.4536 1.3553,6.096 2.5347,8.7709h-4.5013c-1.047-2.6843-2.2622-6.3395-2.2288-8.7709 .046-3.3755 3.1843-6.2763 3.2048-9.6521 .017-2.8251-1.9207-7.4911-2.8989-9.6589h4.0206zm-5.9289,0c1.1125,2.1584 3.3201,6.7994 3.3286,9.6589 .01,3.4004-3.4363,6.2518-3.4597,9.6521-.017,2.4542 1.3604,6.0958 2.542,8.7709h-4.5085c-1.0471-2.6843-2.2622-6.3395-2.2288-8.7709 .046-3.3755 3.1915-6.2763 3.212-9.6521 .017-2.8251-1.9259-7.4911-2.9061-9.6589h4.0205zm-5.9215,0c1.1104,2.1584 3.3128,6.7994 3.3213,9.6589 .01,3.4004-3.4364,6.2518-3.4597,9.6521-.017,2.4542 1.3604,6.0958 2.542,8.7709h-4.5013c-1.0491-2.6843-2.2695-6.3395-2.2361-8.7709 .046-3.3755 3.1915-6.2763 3.2121-9.6521 .017-2.8251-1.9259-7.4911-2.9062-9.6589h4.0279zm-5.9289,0c1.1105,2.1584 3.3128,6.7994 3.3213,9.6589 .01,3.4004-3.4291,6.2518-3.4524,9.6521-.017,2.4536 1.3554,6.096 2.5347,8.7709h-4.5013c-1.0491-2.6843-2.2694-6.3395-2.236-8.7709 .046-3.3755 3.1915-6.2763 3.212-9.6521 .017-2.8251-1.9259-7.4911-2.9061-9.6589h4.0278zm-5.9288,0c1.1125,2.1584 3.32,6.7994 3.3286,9.6589 .01,3.4004-3.4364,6.2518-3.4597,9.6521-.017,2.4536 1.3553,6.096 2.5347,8.7709h-4.5013c-1.0491-2.6843-2.26954-6.3395-2.23614-8.7709 .046-3.3755 3.19154-6.2763 3.21214-9.6521 .017-2.7946-1.8746-7.3796-2.8625-9.5769 .3216-.053.6548-.082.9979-.082h2.9863zm-5.61574.6148c1.1659,2.3286 3.00764,6.4177 3.01544,9.0441 .01,3.4004-3.43644,6.2518-3.45974,9.6521-.017,2.4542 1.3604,6.0958 2.54204,8.7709h-4.11524v-24.5367c0-1.2179.7978-2.2929 2.0175-2.9304z" fill="url(#n)"/>
    <path transform="scale(-1,1)" d="m-1045.3 1575.1h48.161v8.2888h-48.161z" fill="url(#m)"/>
    <path d="m1018.0478,1534.2831c.042,0 .081,0 .1231.01 .1998.015.3929.07.5742.1743 .6544.3764 1.2289,1.1798 1.4994,2.0865 .5623,1.8846.5636,4.2322 0,6.116-.2706.9046-.6672,2.0762-1.4994,2.0762h-5.4461c-.8322,0-1.504-.9241-1.504-2.0762 0,0-.2407-2.8919.2826-4.0295 1.06-2.3047 3.1918-3.4514 5.0952-4.173 .2762-.1046.5811-.1796.875-.1794zm-16.8717.01c.2691.011.5451.079.7976.1743 1.9034.7216 4.0352,1.8683 5.0952,4.173 .5232,1.1376.2826,4.0295.2826,4.0295 0,1.1521-.6718,2.0762-1.504,2.0762h-5.4462c-.83211,0-1.22872-1.1716-1.49936-2.0762-.56359-1.8838-.56225-4.2314 0-6.116 .27052-.9067.84503-1.7101 1.49936-2.0865 .2418-.139.5057-.1851.7748-.1743zm15.4179,2.9324c-.2018-.0001-.4074.049-.597.1179-1.3068.4736-2.7724,1.2248-3.5002,2.7376-.3592.7467-.1914,2.6453-.1914,2.6453 0,.7562.4587,1.3636 1.03,1.3636h3.7371c.5714,0 .8442-.7699 1.03-1.3636 .387-1.2365.386-2.7771 0-4.0141-.1857-.5952-.5807-1.1218-1.03-1.3688-.1245-.068-.2547-.1027-.3919-.1128l-.087-.01zm-14.0415,0c-.029,0-.058,0-.087.01-.1372.01-.2675.044-.392.1128-.4492.247-.8442.7736-1.0299,1.3688-.3861,1.237-.387,2.7776 0,4.0141 .1858.5938.4586,1.3636 1.0299,1.3636h3.7372c.5713,0 1.0299-.6074 1.0299-1.3636 0,0 .1678-1.8986-.1914-2.6453-.7277-1.5128-2.1887-2.2639-3.4955-2.7376-.1897-.069-.3998-.118-.6016-.1179zm8.3264.9074c.3414,0 .64.2084.8295.5332-.079.1323-.1533.2686-.2233.4101-.5232,1.0571-.2871,3.7424-.2871,3.7424 0,.5687.1861,1.0779.4876,1.4303-.1904.3049-.4776.4972-.8067.4972h-2.6068c-.3304,0-.6255-.1902-.8158-.4972 .3015-.3524.4922-.8616.4922-1.4303 0,0 .2407-2.6853-.2826-3.7424-.071-.1428-.148-.2767-.2278-.4101 .1895-.3248.4926-.5332.834-.5332h2.6068z" fill="url(#l)"/>
    <g transform="matrix(-.32933 0 0 -.11163 1184.1 1636.4)">
     <path transform="matrix(-3.0365 0 0 -8.9584 3595.6 10607)" d="m1004.9 1093.5v28.219h9.1562v-28.219h-9.1562zm0 29.312v8.2813h9.1562v-8.2813h-9.1562z" fill="url(#k)"/>
     <path d="m519.16 558.54v252.6h3.0938v-252.6h-3.0938zm19.344 0v252.6h3.125v-252.6h-3.125z" fill="#fff" opacity=".5"/>
    </g>
    <g transform="matrix(-.32933 0 0 .03286 1184.1 1556.7)">
     <path d="m519.16 561.45v252.17h3.0938v-252.17h-3.0938zm19.344 0v252.17h3.125v-252.17h-3.125z" fill="#fff" opacity=".5"/>
    </g>
   </g>
   <g transform="matrix(1.2482 0 0 1.2782 -255.24 -442.7)">
    <path d="m856.1 1514.2h41.98v70.259h-41.98z" fill="url(#j)"/>
    <path transform="translate(0 452.36)" d="m857.3125,1061.7812v70.2813h.0937v-70.2813h-.0937zm.1875,0v70.2813h.1875v-70.2813h-.1875zm.34375,0v70.2813h.1875v-70.2813h-.1875zm.53125,0v70.2813h.1875v-70.2813h-.1875zm.28125,0v70.2813h.0625v-70.2813h-.0625zm.25,0v70.2813h.21875v-70.2813h-.21875zm.34375,0v70.2813h.15625v-70.2813h-.15625zm.25,0v70.2813h.21875v-70.2813h-.21875zm.5625,0v70.2813h.21875v-70.2813h-.21875zm.65625,0v70.2813h.15625v-70.2813h-.15625zm.25,0v70.2813h.0937v-70.2813h-.0937zm.40625,0v70.2813h.28125v-70.2813h-.28125zm.34375,0v70.2813h.1875v-70.2813h-.1875zm.625,0v70.2813h.28125v-70.2813h-.28125zm.5,0v70.2813h.0937v-70.2813h-.0937zm.1875,0v70.2813h.0312v-70.2813h-.0312zm.21875,0v70.2813h.21875v-70.2813h-.21875zm.34375,0v70.2813h.1875v-70.2813h-.1875zm.28125,0v70.2813h.25v-70.2813h-.25zm.5,0v70.2813h.0625v-70.2813h-.0625zm.125,0v70.2813h.0937v-70.2813h-.0937zm3.5625,0v70.2813h.125v-70.2813h-.125zm.1875,0v70.2813h.1875v-70.2813h-.1875zm.34375,0v70.2813h.21875v-70.2813h-.21875zm.5625,0v70.2813h.1875v-70.2813h-.1875zm.28125,0v70.2813h.0312v-70.2813h-.0312zm.21875,0v70.2813h.21875v-70.2813h-.21875zm.34375,0v70.2813h.1875v-70.2813h-.1875zm.25,0v70.2813h.21875v-70.2813h-.21875zm.5625,0v70.2813h.21875v-70.2813h-.21875zm.6875,0v70.2813h.125v-70.2813h-.125zm.21875,0v70.2813h.0937v-70.2813h-.0937zm.4375,0v70.2813h.25v-70.2813h-.25zm.3125,0v70.2813h.1875v-70.2813h-.1875zm.65625,0v70.2813h.28125v-70.2813h-.28125zm.46875,0v70.2813h.0937v-70.2813h-.0937zm.1875,0v70.2813h.0312v-70.2813h-.0312zm.25,0v70.2813h.1875v-70.2813h-.1875zm.34375,0v70.2813h.15625v-70.2813h-.15625zm.25,0v70.2813h.25v-70.2813h-.25zm.5,0v70.2813h.0625v-70.2813h-.0625zm.15625,0v70.2813h.0937v-70.2813h-.0937zm3.53125,0v70.2813h.125v-70.2813h-.125zm.21875,0v70.2813h.15625v-70.2813h-.15625zm.3125,0v70.2813h.21875v-70.2813h-.21875zm.5625,0v70.2813h.1875v-70.2813h-.1875zm.28125,0v70.2813h.0312v-70.2813h-.0312zm.21875,0v70.2813h.21875v-70.2813h-.21875zm.375,0v70.2813h.15625v-70.2813h-.15625zm.25,0v70.2813h.21875v-70.2813h-.21875zm.5625,0v70.2813h.21875v-70.2813h-.21875zm.65625,0v70.2813h.15625v-70.2813h-.15625zm.21875,0v70.2813h.125v-70.2813h-.125zm.4375,0v70.2813h.25v-70.2813h-.25zm.34375,0v70.2813h.1875v-70.2813h-.1875zm.625,0v70.2813h.28125v-70.2813h-.28125zm.5,0v70.2813h.0937v-70.2813h-.0937zm.15625,0v70.2813h.0625v-70.2813h-.0625zm.25,0v70.2813h.21875v-70.2813h-.21875zm.34375,0v70.2813h.15625v-70.2813h-.15625zm.25,0v70.2813h.28125v-70.2813h-.28125zm.5,0v70.2813h.0625v-70.2813h-.0625zm.15625,0v70.2813h.0937v-70.2813h-.0937zm3.5625,0v70.2813h.0937v-70.2813h-.0937zm.1875,0v70.2813h.15625v-70.2813h-.15625zm.3125,0v70.2813h.21875v-70.2813h-.21875zm.5625,0v70.2813h.1875v-70.2813h-.1875zm.28125,0v70.2813h.0625v-70.2813h-.0625zm.25,0v70.2813h.21875v-70.2813h-.21875zm.34375,0v70.2813h.15625v-70.2813h-.15625zm.25,0v70.2813h.21875v-70.2813h-.21875zm.5625,0v70.2813h.21875v-70.2813h-.21875zm.65625,0v70.2813h.15625v-70.2813h-.15625zm.25,0v70.2813h.0937v-70.2813h-.0937zm.40625,0v70.2813h.25v-70.2813h-.25zm.34375,0v70.2813h.1875v-70.2813h-.1875zm.625,0v70.2813h.28125v-70.2813h-.28125zm.5,0v70.2813h.0937v-70.2813h-.0937zm.1875,0v70.2813h.0312v-70.2813h-.0312zm.21875,0v70.2813h.21875v-70.2813h-.21875zm.34375,0v70.2813h.1875v-70.2813h-.1875zm.25,0v70.2813h.28125v-70.2813h-.28125zm.53125,0v70.2813h.0625v-70.2813h-.0625zm.125,0v70.2813h.0937v-70.2813h-.0937z" fill="url(#i)"/>
   </g>
   <g transform="matrix(.81074 0 0 .87382 486.16 864.47)">
    <path d="m417.88 671.62c-0.0893 5e-5 -0.17307 4e-3 -0.26154 0.01-0.42469 0.0288-0.83512 0.13069-1.2205 0.32529-1.3908 0.7023-2.6119 2.2018-3.1869 3.8939-1.195 3.517-1.1979 7.8983 0 11.414 0.57522 1.6882 1.4182 3.8748 3.1869 3.8748h11.576c1.7687 0 3.1966-1.7246 3.1966-3.8748 0 0 0.51149-5.397-0.60058-7.52-2.253-4.3011-6.784-6.4413-10.83-7.7879-0.587-0.19537-1.235-0.33521-1.8598-0.33485zm35.86 0.01c-0.57202 0.0202-1.1585 0.14667-1.6952 0.32529-4.0457 1.3466-8.5767 3.4867-10.83 7.7879-1.1121 2.123-0.60058 7.52-0.60058 7.52 0 2.1502 1.4279 3.8748 3.1966 3.8748h11.576c1.7687 0 2.6117-2.1866 3.1869-3.8748 1.1979-3.5156 1.195-7.8969 0-11.414-0.57499-1.6922-1.7961-3.1916-3.1869-3.8939-0.51388-0.25946-1.0747-0.34549-1.6467-0.32529zm-32.77 5.4726c0.42898-2.3e-4 0.86595 0.0918 1.269 0.22005 2.7776 0.8839 5.8925 2.2857 7.4394 5.109 0.7635 1.3935 0.40684 4.9368 0.40684 4.9368 0 1.4114-0.97486 2.5449-2.1892 2.5449h-7.9431c-1.2143 0-1.7943-1.4368-2.1892-2.5449-0.82241-2.3076-0.82046-5.1827 0-7.4913 0.39476-1.1107 1.2343-2.0935 2.1892-2.5545 0.2646-0.12773 0.54148-0.19162 0.83305-0.21048l0.18404-0.01zm29.845 0 0.18405 0.01c0.29157 0.0188 0.56845 0.0828 0.83305 0.21049 0.9549 0.46098 1.7944 1.4438 2.1892 2.5545 0.82047 2.3086 0.82241 5.1836 0 7.4913-0.39492 1.1081-0.97486 2.5449-2.1892 2.5449h-7.9431c-1.2143 0-2.1892-1.1336-2.1892-2.5449 0 0-0.35666-3.5433 0.40684-4.9368 1.5468-2.8232 4.6521-4.2251 7.4297-5.109 0.40302-0.12825 0.84967-0.22029 1.2786-0.22005zm-17.698 1.6934c-0.72553 0-1.3602 0.38886-1.763 0.99501 0.16799 0.24703 0.32575 0.50125 0.47465 0.76539 1.1121 1.9727 0.61026 6.9842 0.61026 6.9842 0 1.0614-0.39561 2.0117-1.0365 2.6693 0.40465 0.56906 1.0152 0.92803 1.7145 0.92803h5.5408c0.70219 0 1.3294-0.35497 1.7339-0.92803-0.64086-0.65761-1.0462-1.6079-1.0462-2.6693 0 0-0.5115-5.0114 0.60057-6.9842 0.15022-0.26647 0.3147-0.51632 0.48434-0.76539-0.40274-0.60615-1.0471-0.99501-1.7727-0.99501h-5.5408z" fill="url(#h)"/>
    <path d="m409.8 692.66c-4.6282 0-8.3637-0.048-8.3637 5.8756v18.45h68.919v-18.45c0-5.9236-3.7355-5.8756-8.3637-5.8756h-52.191z" fill="url(#g)"/>
    <path d="m470.35 700.16h-68.919v13.824h68.919v-13.824z" fill="url(#f)"/>
    <path d="m401.43 701.52v1.2518h68.92v-1.2518h-68.92zm0 9.8592v1.2518h68.92v-1.2518h-68.92z" fill="#fff" opacity=".51923"/>
   </g>
   <g transform="matrix(.2953 0 0 .2593 597.97 1328.6)">
    <g transform="translate(-1.0533,.01032)">
     <g transform="translate(-18.177)">
      <path d="m954.95 818.57v160.82h227.13v-160.82h-227.13z" fill="#fea"/>
      <path transform="translate(0 452.36)" d="m967.16 366.22-4.0625 3.0625 4.4688 13.875-11.938-8.3438-0.6875 0.5v25.719l3.0312-0.0625 3.5938-10.938 3.7188 10.906h11.531l-9.1875 6.9375 3.5312 10.938-9.4062-6.5938-6.8125 4.9062v9.875l0.4375-1.3438 4.75 13.812 14.625 0.0312-11.656 8.7812 4.4688 13.875-11.938-8.3438-0.6875 0.5v25.719l3.0312-0.0625 3.5938-10.938 3.7188 10.906h11.531l-9.1875 6.9375 3.5312 10.938-9.4062-6.5938-6.8125 4.9062v9.875l0.4375-1.3438 4.75 13.812 14.625 0.0312-11.312 8.5312h29.312l-11.281-8.25 14.562-0.25 4.5626-13.875 4.75 13.812 14.594 0.0312-11.281 8.5312h29.313l-11.281-8.25 14.562-0.25 4.5625-13.875 4.75 13.812 14.594 0.0312-11.281 8.5312h29.312l-11.312-8.25 14.594-0.25 4.5624-13.875 4.75 13.812 14.594 0.0312-11.312 8.5312h29.344l-11.312-8.25 14.594-0.25 4.5625-13.875 4.75 13.812 14.562 0.0312-11.281 8.5312h29.344l-11.312-8.25 14.594-0.25 4.5626-13.875 0.625 1.8125v-10.625l-6.625-4.625-9.3126 6.75 3.3438-11-9.25-6.7812 11.5-0.21875 3.5625-10.938 3.75 10.906h3.0313v-25.812l-0.4376-0.3125-11.844 8.5312 4.3125-13.938-11.812-8.625 14.594-0.25 4.5626-13.875 0.625 1.8125v-10.625l-6.625-4.625-9.3126 6.75 3.3438-11-9.25-6.7812 11.5-0.21875 3.5625-10.938 3.75 10.906h3.0313v-25.812l-0.4376-0.3125-11.844 8.5312 4.3125-13.938-4.375-3.1875h-21.75l-4.0625 3.0625 4.4687 13.875-11.969-8.3438-11.812 8.5312 4.2812-13.938-4.375-3.1875h-21.75l-4.0624 3.0625 4.4687 13.875-11.969-8.3438-11.781 8.5312 4.25-13.938-4.375-3.1875h-21.719l-4.0626 3.0625 4.4688 13.875-11.969-8.3438-11.812 8.5312 4.25-13.938-4.375-3.1875h-21.719l-4.0625 3.0625 4.4687 13.875-11.969-8.3438-11.812 8.5312 4.25-13.938-4.375-3.1875h-21.719zm30.031 23.812 3.75 10.906h11.469l-9.1562 6.9375 3.5312 10.938-9.4062-6.5938-9.3438 6.75 3.375-11-9.3125-6.7812 11.5-0.21875 3.5938-10.938zm35.625 0 3.75 10.906h11.469l-9.1562 6.9375 3.5312 10.938-9.4062-6.5938-9.3125 6.75 3.3437-11-9.3124-6.7812 11.5-0.21875 3.5937-10.938zm35.625 0 3.75 10.906h11.5l-9.1875 6.9375 3.5312 10.938-9.4374-6.5938-9.2813 6.75 3.3437-11-9.2812-6.7812 11.469-0.21875 3.5937-10.938zm35.625 0 3.75 10.906h11.5l-9.1875 6.9375 3.5312 10.938-9.4374-6.5938-9.3126 6.75 3.375-11-9.2812-6.7812 11.469-0.21875 3.5937-10.938zm35.625 0 3.75 10.906h11.5l-9.1875 6.9375 3.5312 10.938-9.4374-6.5938-9.3126 6.75 3.375-11-9.2812-6.7812 11.469-0.21875 3.5937-10.938zm-184.75 17.312v3.375l0.84375-2.75-0.84375-0.625zm227.16 0-0.7188 0.53125 0.7188 2.2188v-2.75zm-181.5 18.312 4.75 13.812 14.594 0.0312-11.625 8.7812 4.4687 13.875-11.969-8.3438-11.812 8.5312 4.25-13.938-11.781-8.625 14.562-0.25 4.5626-13.875zm45.219 0 4.75 13.812 14.594 0.0312-11.625 8.7812 4.4688 13.875-11.969-8.3438-11.812 8.5312 4.25-13.938-11.781-8.625 14.562-0.25 4.5625-13.875zm45.219 0 4.75 13.812 14.594 0.0312-11.656 8.7812 4.4687 13.875-11.969-8.3438-11.781 8.5312 4.25-13.938-11.812-8.625 14.594-0.25 4.5624-13.875zm45.219 0 4.75 13.812 14.562 0.0312-11.625 8.7812 4.4687 13.875-11.969-8.3438-11.812 8.5312 4.2812-13.938-11.812-8.625 14.594-0.25 4.5625-13.875zm-139.06 43.375 3.75 10.906h11.469l-9.1562 6.9375 3.5312 10.938-9.4062-6.5938-9.3438 6.75 3.375-11-9.3125-6.7812 11.5-0.21875 3.5938-10.938zm35.625 0 3.75 10.906h11.469l-9.1562 6.9375 3.5312 10.938-9.4062-6.5938-9.3125 6.75 3.3437-11-9.3124-6.7812 11.5-0.21875 3.5937-10.938zm35.625 0 3.75 10.906h11.5l-9.1875 6.9375 3.5312 10.938-9.4374-6.5938-9.2813 6.75 3.3437-11-9.2812-6.7812 11.469-0.21875 3.5937-10.938zm35.625 0 3.75 10.906h11.5l-9.1875 6.9375 3.5312 10.938-9.4374-6.5938-9.3126 6.75 3.375-11-9.2812-6.7812 11.469-0.21875 3.5937-10.938zm35.625 0 3.75 10.906h11.5l-9.1875 6.9375 3.5312 10.938-9.4374-6.5938-9.3126 6.75 3.375-11-9.2812-6.7812 11.469-0.21875 3.5937-10.938zm-184.75 17.312v3.375l0.84375-2.75-0.84375-0.625zm227.16 0-0.7188 0.53125 0.7188 2.2188v-2.75z" fill="url(#e)"/>
     </g>
     <path d="m960.38 754.36c-15.955 0-28.833 11.267-28.833 25.223v32.086h237.59v-32.086c0-13.956-12.878-25.223-28.833-25.223h-179.92z" fill="url(#d)"/>
    </g>
    <g transform="matrix(1.2153 0 0 1 -504.94 -4.2133)">
     <path d="m1261.8 758.58v57.353h34.251v-57.353h-34.251zm3.4393 64.216v160.82h27.42v-160.82h-27.42z" fill="url(#c)"/>
     <path d="m1265.1 758.58v57.353h3.7691v-57.353h-3.7691zm23.792 0v57.353h3.8162v-57.353h-3.8162zm-21.06 64.216v160.82h3.0152v-160.82h-3.0152zm19.034 0v160.82h3.0623v-160.82h-3.0623z" fill="#fff" opacity=".5"/>
    </g>
    <path d="m990.84 689.09c-0.28961 1.5e-4 -0.56153 0.0106-0.84859 0.0291-1.3779 0.0873-2.7096 0.39681-3.9601 0.98768-4.5128 2.1323-8.4746 6.6852-10.34 11.823-3.8774 10.679-3.8866 23.981 0 34.656 1.8664 5.1257 4.6015 11.765 10.34 11.765h37.558c5.7388 0 10.372-5.2365 10.372-11.765 0 0 1.6597-16.387-1.9485-22.833-7.3103-13.059-22.011-19.557-35.138-23.646-1.9045-0.59321-4.0071-1.0178-6.0344-1.0167zm116.35 0.0291c-1.856 0.0613-3.7589 0.44531-5.5001 0.98768-13.127 4.0886-27.828 10.587-35.138 23.646-3.6081 6.4459-1.9485 22.833-1.9485 22.833 0 6.5284 4.6328 11.765 10.372 11.765h37.558c5.7386 0 8.4739-6.6392 10.34-11.765 3.8866-10.674 3.8774-23.977 0-34.656-1.8656-5.1379-5.8275-9.6907-10.34-11.823-1.6674-0.78781-3.4871-1.049-5.343-0.98768zm-106.33 16.616c1.3918-7.2e-4 2.8097 0.27875 4.1172 0.66814 9.0121 2.6838 19.119 6.9401 24.138 15.512 2.4772 4.2311 1.32 14.989 1.32 14.989 0 4.2853-3.163 7.7271-7.103 7.7271h-25.772c-3.9399 0-5.8216-4.3626-7.103-7.7271-2.6684-7.0066-2.6621-15.736 0-22.746 1.2808-3.3725 4.0048-6.3565 7.103-7.7561 0.85851-0.38784 1.757-0.58183 2.703-0.63909 0.197-0.0122 0.3982-0.029 0.5971-0.0291zm96.834 0c0.1989 1.1e-4 0.4001 0.0168 0.5972 0.0291 0.946 0.0572 1.8444 0.25125 2.7029 0.63909 3.0982 1.3997 5.8222 4.3836 7.103 7.7561 2.6621 7.0095 2.6684 15.739 0 22.746-1.2813 3.3646-3.163 7.7271-7.103 7.7271h-25.772c-3.94 0-7.103-3.4418-7.103-7.7271 0 0-1.1572-10.758 1.32-14.989 5.0189-8.5722 15.094-12.829 24.106-15.512 1.3077-0.38938 2.7569-0.66885 4.1487-0.66814zm-57.421 5.1417c-2.354 0-4.4133 1.1807-5.72 3.0211 0.5449 0.75006 1.0569 1.522 1.54 2.3239 3.6081 5.9898 1.98 21.206 1.98 21.206 0 3.2228-1.2836 6.1081-3.3629 8.1047 1.3129 1.7278 3.2939 2.8178 5.5629 2.8178h17.978c2.2783 0 4.3133-1.0778 5.6258-2.8178-2.0792-1.9967-3.3943-4.8819-3.3943-8.1047 0 0-1.6596-15.216 1.9486-21.206 0.4873-0.80907 1.0211-1.5677 1.5714-2.3239-1.3066-1.8404-3.3974-3.0211-5.7515-3.0211h-17.978z" fill="url(#b)"/>
   </g>
  </g>
  <path transform="translate(7.2802 129.37)" d="m604.62 1553.9h479.37v159.52h-479.37z" clip-path="url(#y)" fill="url(#aa)"/>
  <path d="m851.59 1522c-4.5314 0-9.0395 0.1262-13.5 0.3437l13.375 154.41 20.125-154.03c-6.5855-0.4788-13.253-0.7187-20-0.7187zm-0.125 154.75 68.219-146.06c-12.687-3.3434-25.918-5.7916-39.562-7.2188l-28.656 153.28zl121.12-125.25c-12.497-6.7747-25.97-12.548-40.25-17.125l-80.875 142.38zl170.09-88.312c-10.82-11.34-23.48-21.576-37.656-30.406l-132.44 118.72zl203.56-35.25c-5.7679-16.068-14.63-31.115-26.062-44.781l-177.5 80.031zh210.97c-0.5938-8.92-2.1282-17.64-4.5-26.125l-206.47 26.125zl-203.09-35.938c-4.2047 11.515-6.7997 23.54-7.625 35.938h210.72zl-166.06-92.188c-12.545 12.362-22.821 26.17-30.375 41.031l196.44 51.156zl-116.62-127.53c-14.358 7.3849-27.498 16.1-39.094 25.906l155.72 101.62zl-67.625-146.16c-14.121 3.6984-27.584 8.5034-40.188 14.313l107.81 131.84zl-21.031-153.94c-13.546 1.0428-26.736 3.0711-39.406 6l60.438 147.94z" fill="url(#z)" opacity=".17788"/>
 </g>
 <g transform="matrix(1.0098 0 0 1.0194 -622.54 -1431.3)" clip-path="url(#ac)">
  <g transform="matrix(.40572 0 0 .35718 555.52 1293.5)">
   <g transform="translate(.33423 52.666)">
    <path d="m268.74 619.99v136.62h192.95v-136.62h-192.95z" fill="#fff6d5"/>
    <path d="m288.79 565.44c-6.9173 0-13.128 2.5262-17.57 6.536h188.03c-4.4431-4.0185-10.645-6.536-17.57-6.536h-152.89zm-21.493 11.141c-1.8964 3.0434-3.0018 6.5634-3.0018 10.287v27.258h201.84v-27.258c0-3.7233-1.0654-7.2434-2.9618-10.287h-195.88zm-2.9217 10.658h201.72v4.5678h-201.72v-4.5678zm0 15.263h201.72v4.5677h-201.72v-4.5677zm4.3626 17.491v11.995h192.95v-11.995h-192.95zm0 16.6v10.658h192.95v-10.658h-192.95zm0 15.263v10.658h192.95v-10.658h-192.95zm0 15.263v10.658h192.95v-10.658h-192.95zm0 15.263v10.658h192.95v-10.658h-192.95zm0 15.263v10.658h192.95v-10.658h-192.95zm0 15.263v10.658h192.95v-10.658h-192.95zm0 15.263v10.658h192.95v-10.658h-192.95zm0 15.263v13.183h192.95v-13.183h-192.95z" fill="url(#w)"/>
    <path d="m288.79 565.44c-13.555 0-24.495 9.5718-24.495 21.428v27.258h201.84v-27.258c0-11.856-10.94-21.428-24.495-21.428h-152.85z" fill="url(#v)"/>
    <path transform="matrix(1.2808 0 0 1.1884 -6.4281 30.343)" d="m278.81 450.28v41h22.719v-41h-22.719zm2.2812 45.906v114.97h18.188v-114.97h-18.188z" fill="url(#u)"/>
    <path transform="matrix(1.2808 0 0 1.1884 -6.4281 30.343)" d="m281.03 450.28v41h2.5v-41h-2.5zm15.781 0v41h2.5312v-41h-2.5312zm-13.969 45.906v114.97h2v-114.97h-2zm12.625 0v114.97h2.0312v-114.97h-2.0312z" fill="#fff" opacity=".5"/>
   </g>
   <path d="m319.66 562.66c-0.2274 1.3e-4 -0.44091 9e-3 -0.66631 0.0247-1.0819 0.0742-2.1276 0.3371-3.1094 0.83906-3.5434 1.8115-6.6543 5.6792-8.1191 10.044-3.0445 9.0718-3.0518 20.373 0 29.441 1.4654 4.3545 3.6131 9.9946 8.1191 9.9946h29.49c4.506 0 8.1438-4.4486 8.1438-9.9946 0 0 1.3031-13.921-1.53-19.397-5.74-11.094-17.283-16.615-27.59-20.088-1.4955-0.50395-3.1464-0.86466-4.7382-0.86373zm91.358 0.0247c-1.4573 0.0521-2.9514 0.3783-4.3187 0.83906-10.307 3.4734-21.85 8.9937-27.59 20.088-2.8331 5.476-1.53 19.397-1.53 19.397 0 5.5461 3.6377 9.9946 8.1438 9.9946h29.49c4.506 0 6.6536-5.6402 8.1191-9.9946 3.0518-9.0681 3.0446-20.369 0-29.441-1.4648-4.3648-4.5757-8.2325-8.1191-10.044-1.3092-0.66927-2.738-0.89118-4.1953-0.83906zm-83.486 14.116c1.0929-6.1e-4 2.2061 0.23681 3.2328 0.5676 7.0763 2.2799 15.012 5.8958 18.953 13.178 1.9451 3.5944 1.0365 12.734 1.0365 12.734 0 3.6404-2.4836 6.5644-5.5772 6.5644h-20.236c-3.0936 0-4.5712-3.7061-5.5773-6.5644-2.0952-5.9523-2.0902-13.368 0-19.323 1.0057-2.865 3.1445-5.4 5.5773-6.589 0.67412-0.32948 1.3795-0.49428 2.1223-0.54292l0.46888-0.0247zm76.033 0c0.15614 9e-5 0.31414 0.0143 0.46889 0.0247 0.7428 0.0486 1.4482 0.21344 2.1223 0.54292 2.4327 1.1891 4.5716 3.724 5.5773 6.589 2.0902 5.9547 2.0952 13.371 0 19.323-1.0061 2.8583-2.4836 6.5644-5.5773 6.5644h-20.236c-3.0936 0-5.5773-2.9239-5.5773-6.5644 0 0-0.90864-9.1395 1.0365-12.734 3.9408-7.2823 11.852-10.898 18.928-13.178 1.0267-0.33079 2.1646-0.56821 3.2575-0.5676zm-45.087 4.368c-1.8484 0-3.4654 1.003-4.4914 2.5665 0.42795 0.6372 0.82988 1.293 1.2092 1.9742 2.8331 5.0885 1.5547 18.015 1.5547 18.015 0 2.7379-1.0079 5.189-2.6406 6.8852 1.0309 1.4678 2.5863 2.3938 4.368 2.3938h14.116c1.7889 0 3.3868-0.91562 4.4174-2.3938-1.6327-1.6962-2.6652-4.1473-2.6652-6.8852 0 0-1.3031-12.927 1.53-18.015 0.38269-0.68732 0.80173-1.3318 1.2339-1.9742-1.026-1.5635-2.6677-2.5665-4.5161-2.5665h-14.116z" fill="url(#t)"/>
  </g>
  <g transform="matrix(1.174 0 0 1.174 -124.21 -275.82)">
   <path d="m746.25 1519.2h44.773v63.748h-44.773z" fill="#fff6d5"/>
   <path d="m750.29 1519.2c2e-3 0.029 0 0.058 0 0.088 0 1.121-1.186 2.027-2.6467 2.027-0.51521 0-0.99103-0.1156-1.3977-0.3113v3.623c0.40611-0.1948 0.88362-0.3112 1.3977-0.3112 1.4607 0 2.6467 0.9139 2.6467 2.0349s-1.186 2.0269-2.6467 2.0269c-0.51408 0-0.99159-0.1084-1.3977-0.3032v3.6149c0.40611-0.1948 0.88362-0.3112 1.3977-0.3112 1.4607 0 2.6467 0.9139 2.6467 2.0349s-1.186 2.0269-2.6467 2.0269c-0.51408 0-0.99159-0.1084-1.3977-0.3032v3.6149c0.40611-0.1948 0.88362-0.3112 1.3977-0.3112 1.4607 0 2.6467 0.9139 2.6467 2.0349s-1.186 2.0269-2.6467 2.0269c-0.51408 0-0.99159-0.1084-1.3977-0.3032v3.6229c0.40611-0.1934 0.88362-0.3032 1.3977-0.3032 1.4607 0 2.6467 0.898 2.6467 2.0189s-1.186 2.027-2.6467 2.027c-0.51408 0-0.99159-0.1084-1.3977-0.3033v3.623c0.40611-0.1949 0.88362-0.3033 1.3977-0.3033 1.4607 0 2.6467 0.906 2.6467 2.0269s-1.186 2.027-2.6467 2.027c-0.51408 0-0.99159-0.1084-1.3977-0.3033v3.615c0.40611-0.1948 0.88362-0.3033 1.3977-0.3033 1.4607 0 2.6467 0.906 2.6467 2.027s-1.186 2.0349-2.6467 2.0349c-0.51408 0-0.99159-0.1164-1.3977-0.3112v3.6149c0.40611-0.1948 0.88362-0.3032 1.3977-0.3032 1.4607 0 2.6467 0.9059 2.6467 2.0269s-1.186 2.0349-2.6467 2.0349c-0.51408 0-0.99159-0.1164-1.3977-0.3112v3.6149c0.40611-0.1948 0.88362-0.3032 1.3977-0.3032 1.4607 0 2.6467 0.9059 2.6467 2.0269s-1.186 2.0349-2.6467 2.0349c-0.51408 0-0.99159-0.1164-1.3977-0.3112v3.6309c0.40667-0.1956 0.88249-0.3112 1.3977-0.3112 1.4607 0 2.6467 0.9059 2.6467 2.0269 0 0.027 1e-3 0.053 0 0.08h3.1126c-2e-3 -0.029-0.01-0.058-0.01-0.088 0-1.1209 1.186-2.0269 2.6467-2.0269s2.6467 0.906 2.6467 2.0269c0 0.03 2e-3 0.059 0 0.088h3.1126c-1e-3 -0.027-0.01-0.053-0.01-0.08 0-1.121 1.186-2.0269 2.6467-2.0269s2.6467 0.9059 2.6467 2.0269c0 0.027 1e-3 0.053 0 0.08h3.1126c-2e-3 -0.029-0.01-0.058-0.01-0.088 0-1.1209 1.186-2.0269 2.6467-2.0269s2.6467 0.906 2.6467 2.0269c0 0.03 2e-3 0.059 0 0.088h3.1126c-1e-3 -0.027-0.01-0.053-0.01-0.08 0-1.121 1.186-2.0269 2.6467-2.0269s2.6467 0.9059 2.6467 2.0269c0 0.027 1e-3 0.053 0 0.08h3.1126c-2e-3 -0.029-0.01-0.058-0.01-0.088 0-1.1209 1.186-2.0269 2.6467-2.0269 0.51521 0 0.99103 0.1156 1.3977 0.3112v-3.6229c-0.40611 0.1948-0.88362 0.3112-1.3977 0.3112-1.4607 0-2.6467-0.9139-2.6467-2.0349s1.186-2.0269 2.6467-2.0269c0.51408 0 0.99159 0.1084 1.3977 0.3032v-3.6149c-0.40611 0.1948-0.88362 0.3112-1.3977 0.3112-1.4607 0-2.6467-0.9139-2.6467-2.0349s1.186-2.0269 2.6467-2.0269c0.51408 0 0.99159 0.1084 1.3977 0.3032v-3.6149c-0.40619 0.1948-0.8837 0.3112-1.3978 0.3112-1.4607 0-2.6467-0.9139-2.6467-2.0349s1.186-2.027 2.6467-2.027c0.51408 0 0.99159 0.1085 1.3977 0.3033v-3.6229c-0.40611 0.1948-0.88362 0.3032-1.3977 0.3032-1.4607 0-2.6467-0.9059-2.6467-2.0269s1.186-2.019 2.6467-2.019c0.51408 0 0.99159 0.1098 1.3977 0.3033v-3.623c-0.40611 0.1949-0.88362 0.3033-1.3977 0.3033-1.4607 0-2.6467-0.906-2.6467-2.027s1.186-2.0269 2.6467-2.0269c0.51408 0 0.99159 0.1084 1.3977 0.3033v-3.615c-0.40611 0.1948-0.88362 0.3032-1.3977 0.3032-1.4607 0-2.6467-0.9059-2.6467-2.0269s1.186-2.0349 2.6467-2.0349c0.51408 0 0.99159 0.1164 1.3977 0.3112v-3.6149c-0.40611 0.1948-0.88362 0.3032-1.3977 0.3032-1.4607 0-2.6467-0.9059-2.6467-2.0269s1.186-2.0349 2.6467-2.0349c0.51408 0 0.99159 0.1164 1.3977 0.3112v-3.6149c-0.40611 0.1948-0.88362 0.3032-1.3977 0.3032-1.4607 0-2.6467-0.9059-2.6467-2.0269s1.186-2.0349 2.6467-2.0349c0.51408 0 0.99159 0.1164 1.3977 0.3112v-3.6309c-0.40667 0.1956-0.88249 0.3112-1.3977 0.3112-1.4607 0-2.6467-0.906-2.6467-2.0269 0-0.027 9e-3 -0.053 0.01-0.08h-3.1126c2e-3 0.029 0 0.058 0 0.088 0 1.121-1.186 2.027-2.6467 2.027s-2.6467-0.906-2.6467-2.027c0-0.03 8e-3 -0.058 0.01-0.088h-3.1126c1e-3 0.027 0 0.053 0 0.08 0 1.1209-1.186 2.0269-2.6467 2.0269s-2.6467-0.906-2.6467-2.0269c0-0.027 9e-3 -0.053 0.01-0.08h-3.1126c2e-3 0.029 0 0.058 0 0.088 0 1.121-1.186 2.027-2.6467 2.027s-2.6467-0.906-2.6467-2.027c0-0.03 8e-3 -0.058 0.01-0.088h-3.1126c1e-3 0.027 0 0.053 0 0.08 0 1.1209-1.186 2.0269-2.6467 2.0269s-2.6467-0.906-2.6467-2.0269c0-0.027 9e-3 -0.053 0.01-0.08h-3.1126zm5.7494 5.1152c1.4607 0 2.6467 0.9139 2.6467 2.0349s-1.186 2.0269-2.6467 2.0269-2.6467-0.9059-2.6467-2.0269 1.186-2.0349 2.6467-2.0349zm8.3961 0c1.4607 0 2.6467 0.9139 2.6467 2.0349s-1.186 2.0269-2.6467 2.0269-2.6467-0.9059-2.6467-2.0269 1.186-2.0349 2.6467-2.0349zm8.3961 0c1.4607 0 2.6467 0.9139 2.6467 2.0349s-1.186 2.0269-2.6467 2.0269-2.6467-0.9059-2.6467-2.0269 1.186-2.0349 2.6467-2.0349zm8.3961 0c1.4607 0 2.6467 0.9139 2.6467 2.0349s-1.186 2.0269-2.6467 2.0269-2.6467-0.9059-2.6467-2.0269 1.186-2.0349 2.6467-2.0349zm-25.188 7.0623c1.4607 0 2.6467 0.9139 2.6467 2.0349s-1.186 2.0269-2.6467 2.0269-2.6467-0.9059-2.6467-2.0269 1.186-2.0349 2.6467-2.0349zm8.3961 0c1.4607 0 2.6467 0.9139 2.6467 2.0349s-1.186 2.0269-2.6467 2.0269-2.6467-0.9059-2.6467-2.0269 1.186-2.0349 2.6467-2.0349zm8.3961 0c1.4607 0 2.6467 0.9139 2.6467 2.0349s-1.186 2.0269-2.6467 2.0269-2.6467-0.9059-2.6467-2.0269 1.186-2.0349 2.6467-2.0349zm8.3961 0c1.4607 0 2.6467 0.9139 2.6467 2.0349s-1.186 2.0269-2.6467 2.0269-2.6467-0.9059-2.6467-2.0269 1.186-2.0349 2.6467-2.0349zm-25.188 7.0623c1.4607 0 2.6467 0.9139 2.6467 2.0349s-1.186 2.0269-2.6467 2.0269-2.6467-0.9059-2.6467-2.0269 1.186-2.0349 2.6467-2.0349zm8.3961 0c1.4607 0 2.6467 0.9139 2.6467 2.0349s-1.186 2.0269-2.6467 2.0269-2.6467-0.9059-2.6467-2.0269 1.186-2.0349 2.6467-2.0349zm8.3961 0c1.4607 0 2.6467 0.9139 2.6467 2.0349s-1.186 2.0269-2.6467 2.0269-2.6467-0.9059-2.6467-2.0269 1.186-2.0349 2.6467-2.0349zm8.3961 0c1.4607 0 2.6467 0.9139 2.6467 2.0349s-1.186 2.0269-2.6467 2.0269-2.6467-0.9059-2.6467-2.0269 1.186-2.0349 2.6467-2.0349zm-25.188 7.0703c1.4607 0 2.6467 0.906 2.6467 2.0269s-1.186 2.027-2.6467 2.027-2.6467-0.906-2.6467-2.027 1.186-2.0269 2.6467-2.0269zm16.792 0c1.4607 0 2.6467 0.906 2.6467 2.0269s-1.186 2.027-2.6467 2.027-2.6467-0.906-2.6467-2.027 1.186-2.0269 2.6467-2.0269zm-8.3961 0.01c1.4607 0 2.6467 0.8979 2.6467 2.0189s-1.186 2.027-2.6467 2.027-2.6467-0.906-2.6467-2.027 1.186-2.0189 2.6467-2.0189zm16.792 0c1.4607 0 2.6467 0.8979 2.6467 2.0189s-1.186 2.027-2.6467 2.027-2.6467-0.906-2.6467-2.027 1.186-2.0189 2.6467-2.0189zm-25.188 7.0623c1.4607 0 2.6467 0.898 2.6467 2.019s-1.186 2.0269-2.6467 2.0269-2.6467-0.9059-2.6467-2.0269 1.186-2.019 2.6467-2.019zm8.3961 0c1.4607 0 2.6467 0.906 2.6467 2.0269s-1.186 2.027-2.6467 2.027-2.6467-0.906-2.6467-2.027 1.186-2.0269 2.6467-2.0269zm8.3961 0c1.4607 0 2.6467 0.898 2.6467 2.019s-1.186 2.0269-2.6467 2.0269-2.6467-0.9059-2.6467-2.0269 1.186-2.019 2.6467-2.019zm8.3961 0c1.4607 0 2.6467 0.906 2.6467 2.0269s-1.186 2.027-2.6467 2.027-2.6467-0.906-2.6467-2.027 1.186-2.0269 2.6467-2.0269zm-25.188 7.0623c1.4607 0 2.6467 0.906 2.6467 2.027s-1.186 2.0349-2.6467 2.0349-2.6467-0.9139-2.6467-2.0349 1.186-2.027 2.6467-2.027zm8.3961 0c1.4607 0 2.6467 0.906 2.6467 2.027s-1.186 2.0349-2.6467 2.0349-2.6467-0.9139-2.6467-2.0349 1.186-2.027 2.6467-2.027zm8.3961 0c1.4607 0 2.6467 0.906 2.6467 2.027s-1.186 2.0349-2.6467 2.0349-2.6467-0.9139-2.6467-2.0349 1.186-2.027 2.6467-2.027zm8.3961 0c1.4607 0 2.6467 0.906 2.6467 2.027s-1.186 2.0349-2.6467 2.0349-2.6467-0.9139-2.6467-2.0349 1.186-2.027 2.6467-2.027zm-25.188 7.0624c1.4607 0 2.6467 0.9059 2.6467 2.0269s-1.186 2.0349-2.6467 2.0349-2.6467-0.9139-2.6467-2.0349 1.186-2.0269 2.6467-2.0269zm8.3961 0c1.4607 0 2.6467 0.9059 2.6467 2.0269s-1.186 2.0349-2.6467 2.0349-2.6467-0.9139-2.6467-2.0349 1.186-2.0269 2.6467-2.0269zm8.3961 0c1.4607 0 2.6467 0.9059 2.6467 2.0269s-1.186 2.0349-2.6467 2.0349-2.6467-0.9139-2.6467-2.0349 1.186-2.0269 2.6467-2.0269zm8.3961 0c1.4607 0 2.6467 0.9059 2.6467 2.0269s-1.186 2.0349-2.6467 2.0349-2.6467-0.9139-2.6467-2.0349 1.186-2.0269 2.6467-2.0269zm-25.188 7.0623c1.4607 0 2.6467 0.9059 2.6467 2.0269s-1.186 2.0349-2.6467 2.0349-2.6467-0.9139-2.6467-2.0349 1.186-2.0269 2.6467-2.0269zm8.3961 0c1.4607 0 2.6467 0.9059 2.6467 2.0269s-1.186 2.0349-2.6467 2.0349-2.6467-0.9139-2.6467-2.0349 1.186-2.0269 2.6467-2.0269zm8.3961 0c1.4607 0 2.6467 0.9059 2.6467 2.0269s-1.186 2.0349-2.6467 2.0349-2.6467-0.9139-2.6467-2.0349 1.186-2.0269 2.6467-2.0269zm8.3961 0c1.4607 0 2.6467 0.9059 2.6467 2.0269s-1.186 2.0349-2.6467 2.0349-2.6467-0.9139-2.6467-2.0349 1.186-2.0269 2.6467-2.0269z" fill="url(#s)"/>
   <path d="m750.47 1504.3c-3.2226 0-5.8236 0.9494-5.8236 4.2064v9.1683h47.987v-9.1683c0-3.257-2.601-4.2064-5.8236-4.2064h-36.34z" fill="url(#r)"/>
   <g transform="matrix(.31721 0 0 .25536 591.89 1376.3)">
    <g transform="translate(-.26333 1.0533)">
     <path d="m513.36 500.16v52.351h33.566v-52.351h-33.566z" fill="url(#q)"/>
     <path transform="translate(0 452.36)" d="m516.31 47.781v52.375h3.7812v-52.375h-3.7812zm23.844 0v52.375h3.8125v-52.375h-3.8125z" fill="#fff" opacity=".5"/>
    </g>
    <g transform="translate(-.5149 -1.9204)">
     <path d="m516.5 561.46v249.67h27.783v-249.67h-27.783z" fill="url(#p)"/>
     <path d="m519.16 561.45v249.69h3.0938v-249.69h-3.0938zm19.344 0v249.69h3.125v-249.69h-3.125z" fill="#fff" opacity=".5"/>
    </g>
    <path d="m496.86 452.06c-0.1636 1.1e-4 -0.31721 8e-3 -0.47937 0.0216-0.7784 0.0649-1.5307 0.29478-2.2371 0.73372-2.5493 1.5841-4.7874 4.9663-5.8412 8.7831-2.1904 7.933-2.1956 17.815 0 25.745 1.0543 3.8078 2.5994 8.74 5.8412 8.74h21.217c3.2418 0 5.859-3.8901 5.859-8.74 0 0 0.9375-12.173-1.1008-16.962-4.1296-9.7016-12.434-14.529-19.849-17.566-1.0759-0.44068-2.2636-0.75611-3.4088-0.7553zm65.727 0.0216c-1.0484 0.0456-2.1234 0.33081-3.107 0.73372-7.4152 3.0373-15.72 7.8646-19.849 17.566-2.0383 4.7885-1.1008 16.962-1.1008 16.962 0 4.8498 2.6171 8.74 5.859 8.74h21.217c3.2418 0 4.7869-4.9321 5.8412-8.74 2.1956-7.9297 2.1904-17.812 0-25.745-1.0539-3.8168-3.292-7.199-5.8412-8.7831-0.94187-0.58525-1.9698-0.7793-3.0183-0.73372zm-60.063 12.344c0.78626-5.3e-4 1.5872 0.20708 2.3258 0.49635 5.091 1.9937 10.8 5.1557 13.635 11.524 1.3994 3.1432 0.74569 11.135 0.74569 11.135 0 3.1834-1.7868 5.7403-4.0125 5.7403h-14.559c-2.2257 0-3.2887-3.2408-4.0125-5.7403-1.5074-5.2051-1.5038-11.69 0-16.897 0.72354-2.5054 2.2623-4.7221 4.0125-5.7619 0.48499-0.28812 0.99247-0.43223 1.5269-0.47477 0.11133-9e-3 0.225-0.0215 0.33733-0.0216zm54.701 0c0.11233 8e-5 0.22601 0.0125 0.33734 0.0216 0.5344 0.0425 1.0419 0.18665 1.5269 0.47477 1.7502 1.0398 3.289 3.2565 4.0125 5.7619 1.5038 5.2072 1.5074 11.692 0 16.897-0.72384 2.4995-1.7868 5.7403-4.0125 5.7403h-14.559c-2.2257 0-4.0125-2.5569-4.0125-5.7403 0 0-0.65371-7.9921 0.74569-11.135 2.8352-6.3681 8.5267-9.5301 13.618-11.524 0.73867-0.28927 1.5573-0.49688 2.3436-0.49635zm-32.437 3.8197c-1.3298 0-2.4931 0.87711-3.2313 2.2443 0.30789 0.55721 0.59705 1.1306 0.86997 1.7264 2.0383 4.4497 1.1185 15.753 1.1185 15.753 0 2.3942-0.72511 4.5376-1.8997 6.0209 0.74166 1.2836 1.8607 2.0933 3.1425 2.0933h10.156c1.287 0 2.4366-0.80068 3.178-2.0933-1.1746-1.4833-1.9175-3.6267-1.9175-6.0209 0 0-0.93751-11.304 1.1008-15.753 0.27532-0.60104 0.5768-1.1646 0.88772-1.7264-0.73817-1.3672-1.9192-2.2443-3.2491-2.2443h-10.156z" fill="url(#o)"/>
   </g>
  </g>
  <g transform="matrix(1.5644 0 0 1.8336 -610.78 -1320.7)">
   <path d="m1041.7 1546c2.4622 0.095 4.4066 1.6421 4.4066 3.5445v24.539h-49.587v-24.539c0-1.9637 2.0724-3.5445 4.6469-3.5445h40.533z" fill="#fff6d5"/>
   <path d="m1041.6551,1545.96c2.4622.095 4.4066,1.6429 4.4066,3.5452v24.5367h-2.5565c-1.0491-2.6843-2.2695-6.3395-2.2361-8.7709 .046-3.3755 3.1915-6.2763 3.2121-9.6521 .017-2.8251-1.926-7.4911-2.9062-9.6589h.08zm-1.9811,0c1.1104,2.1584 3.3128,6.7994 3.3213,9.6589 .01,3.4004-3.4364,6.2518-3.4597,9.6521-.017,2.4542 1.3604,6.0958 2.542,8.7709h-4.5013c-1.0491-2.6843-2.2695-6.3395-2.2361-8.7709 .046-3.3755 3.1916-6.2763 3.2121-9.6521 .017-2.8251-1.9259-7.4911-2.9061-9.6589h4.0278zm-5.9289,0c1.1105,2.1584 3.3128,6.7994 3.3214,9.6589 .01,3.4004-3.4291,6.2518-3.4525,9.6521-.017,2.4536 1.3554,6.096 2.5347,8.7709h-4.5012c-1.0491-2.6843-2.2695-6.3395-2.2361-8.7709 .046-3.3755 3.1915-6.2763 3.2121-9.6521 .017-2.8251-1.926-7.4911-2.9062-9.6589h4.0278zm-5.9288,0c1.1125,2.1584 3.3201,6.7994 3.3286,9.6589 .01,3.4004-3.4364,6.2518-3.4597,9.6521-.017,2.4536 1.3553,6.096 2.5347,8.7709h-4.5013c-1.047-2.6843-2.2622-6.3395-2.2288-8.7709 .046-3.3755 3.1843-6.2763 3.2048-9.6521 .017-2.8251-1.9207-7.4911-2.8989-9.6589h4.0206zm-5.9289,0c1.1125,2.1584 3.3201,6.7994 3.3286,9.6589 .01,3.4004-3.4363,6.2518-3.4597,9.6521-.017,2.4542 1.3604,6.0958 2.542,8.7709h-4.5085c-1.0471-2.6843-2.2622-6.3395-2.2288-8.7709 .046-3.3755 3.1915-6.2763 3.212-9.6521 .017-2.8251-1.9259-7.4911-2.9061-9.6589h4.0205zm-5.9215,0c1.1104,2.1584 3.3128,6.7994 3.3213,9.6589 .01,3.4004-3.4364,6.2518-3.4597,9.6521-.017,2.4542 1.3604,6.0958 2.542,8.7709h-4.5013c-1.0491-2.6843-2.2695-6.3395-2.2361-8.7709 .046-3.3755 3.1915-6.2763 3.2121-9.6521 .017-2.8251-1.9259-7.4911-2.9062-9.6589h4.0279zm-5.9289,0c1.1105,2.1584 3.3128,6.7994 3.3213,9.6589 .01,3.4004-3.4291,6.2518-3.4524,9.6521-.017,2.4536 1.3554,6.096 2.5347,8.7709h-4.5013c-1.0491-2.6843-2.2694-6.3395-2.236-8.7709 .046-3.3755 3.1915-6.2763 3.212-9.6521 .017-2.8251-1.9259-7.4911-2.9061-9.6589h4.0278zm-5.9288,0c1.1125,2.1584 3.32,6.7994 3.3286,9.6589 .01,3.4004-3.4364,6.2518-3.4597,9.6521-.017,2.4536 1.3553,6.096 2.5347,8.7709h-4.5013c-1.0491-2.6843-2.26954-6.3395-2.23614-8.7709 .046-3.3755 3.19154-6.2763 3.21214-9.6521 .017-2.7946-1.8746-7.3796-2.8625-9.5769 .3216-.053.6548-.082.9979-.082h2.9863zm-5.61574.6148c1.1659,2.3286 3.00764,6.4177 3.01544,9.0441 .01,3.4004-3.43644,6.2518-3.45974,9.6521-.017,2.4542 1.3604,6.0958 2.54204,8.7709h-4.11524v-24.5367c0-1.2179.7978-2.2929 2.0175-2.9304z" fill="url(#n)"/>
   <path transform="scale(-1,1)" d="m-1045.3 1575.1h48.161v8.2888h-48.161z" fill="url(#m)"/>
   <path d="m1018.0478,1534.2831c.042,0 .081,0 .1231.01 .1998.015.3929.07.5742.1743 .6544.3764 1.2289,1.1798 1.4994,2.0865 .5623,1.8846.5636,4.2322 0,6.116-.2706.9046-.6672,2.0762-1.4994,2.0762h-5.4461c-.8322,0-1.504-.9241-1.504-2.0762 0,0-.2407-2.8919.2826-4.0295 1.06-2.3047 3.1918-3.4514 5.0952-4.173 .2762-.1046.5811-.1796.875-.1794zm-16.8717.01c.2691.011.5451.079.7976.1743 1.9034.7216 4.0352,1.8683 5.0952,4.173 .5232,1.1376.2826,4.0295.2826,4.0295 0,1.1521-.6718,2.0762-1.504,2.0762h-5.4462c-.83211,0-1.22872-1.1716-1.49936-2.0762-.56359-1.8838-.56225-4.2314 0-6.116 .27052-.9067.84503-1.7101 1.49936-2.0865 .2418-.139.5057-.1851.7748-.1743zm15.4179,2.9324c-.2018-.0001-.4074.049-.597.1179-1.3068.4736-2.7724,1.2248-3.5002,2.7376-.3592.7467-.1914,2.6453-.1914,2.6453 0,.7562.4587,1.3636 1.03,1.3636h3.7371c.5714,0 .8442-.7699 1.03-1.3636 .387-1.2365.386-2.7771 0-4.0141-.1857-.5952-.5807-1.1218-1.03-1.3688-.1245-.068-.2547-.1027-.3919-.1128l-.087-.01zm-14.0415,0c-.029,0-.058,0-.087.01-.1372.01-.2675.044-.392.1128-.4492.247-.8442.7736-1.0299,1.3688-.3861,1.237-.387,2.7776 0,4.0141 .1858.5938.4586,1.3636 1.0299,1.3636h3.7372c.5713,0 1.0299-.6074 1.0299-1.3636 0,0 .1678-1.8986-.1914-2.6453-.7277-1.5128-2.1887-2.2639-3.4955-2.7376-.1897-.069-.3998-.118-.6016-.1179zm8.3264.9074c.3414,0 .64.2084.8295.5332-.079.1323-.1533.2686-.2233.4101-.5232,1.0571-.2871,3.7424-.2871,3.7424 0,.5687.1861,1.0779.4876,1.4303-.1904.3049-.4776.4972-.8067.4972h-2.6068c-.3304,0-.6255-.1902-.8158-.4972 .3015-.3524.4922-.8616.4922-1.4303 0,0 .2407-2.6853-.2826-3.7424-.071-.1428-.148-.2767-.2278-.4101 .1895-.3248.4926-.5332.834-.5332h2.6068z" fill="url(#l)"/>
   <g transform="matrix(-.32933 0 0 -.11163 1184.1 1636.4)">
    <path transform="matrix(-3.0365 0 0 -8.9584 3595.6 10607)" d="m1004.9 1093.5v28.219h9.1562v-28.219h-9.1562zm0 29.312v8.2813h9.1562v-8.2813h-9.1562z" fill="url(#k)"/>
    <path d="m519.16 558.54v252.6h3.0938v-252.6h-3.0938zm19.344 0v252.6h3.125v-252.6h-3.125z" fill="#fff" opacity=".5"/>
   </g>
   <g transform="matrix(-.32933 0 0 .03286 1184.1 1556.7)">
    <path d="m519.16 561.45v252.17h3.0938v-252.17h-3.0938zm19.344 0v252.17h3.125v-252.17h-3.125z" fill="#fff" opacity=".5"/>
   </g>
  </g>
  <g transform="matrix(1.2482 0 0 1.2782 -255.24 -442.7)">
   <path d="m856.1 1514.2h41.98v70.259h-41.98z" fill="url(#j)"/>
   <path transform="translate(0 452.36)" d="m857.3125,1061.7812v70.2813h.0937v-70.2813h-.0937zm.1875,0v70.2813h.1875v-70.2813h-.1875zm.34375,0v70.2813h.1875v-70.2813h-.1875zm.53125,0v70.2813h.1875v-70.2813h-.1875zm.28125,0v70.2813h.0625v-70.2813h-.0625zm.25,0v70.2813h.21875v-70.2813h-.21875zm.34375,0v70.2813h.15625v-70.2813h-.15625zm.25,0v70.2813h.21875v-70.2813h-.21875zm.5625,0v70.2813h.21875v-70.2813h-.21875zm.65625,0v70.2813h.15625v-70.2813h-.15625zm.25,0v70.2813h.0937v-70.2813h-.0937zm.40625,0v70.2813h.28125v-70.2813h-.28125zm.34375,0v70.2813h.1875v-70.2813h-.1875zm.625,0v70.2813h.28125v-70.2813h-.28125zm.5,0v70.2813h.0937v-70.2813h-.0937zm.1875,0v70.2813h.0312v-70.2813h-.0312zm.21875,0v70.2813h.21875v-70.2813h-.21875zm.34375,0v70.2813h.1875v-70.2813h-.1875zm.28125,0v70.2813h.25v-70.2813h-.25zm.5,0v70.2813h.0625v-70.2813h-.0625zm.125,0v70.2813h.0937v-70.2813h-.0937zm3.5625,0v70.2813h.125v-70.2813h-.125zm.1875,0v70.2813h.1875v-70.2813h-.1875zm.34375,0v70.2813h.21875v-70.2813h-.21875zm.5625,0v70.2813h.1875v-70.2813h-.1875zm.28125,0v70.2813h.0312v-70.2813h-.0312zm.21875,0v70.2813h.21875v-70.2813h-.21875zm.34375,0v70.2813h.1875v-70.2813h-.1875zm.25,0v70.2813h.21875v-70.2813h-.21875zm.5625,0v70.2813h.21875v-70.2813h-.21875zm.6875,0v70.2813h.125v-70.2813h-.125zm.21875,0v70.2813h.0937v-70.2813h-.0937zm.4375,0v70.2813h.25v-70.2813h-.25zm.3125,0v70.2813h.1875v-70.2813h-.1875zm.65625,0v70.2813h.28125v-70.2813h-.28125zm.46875,0v70.2813h.0937v-70.2813h-.0937zm.1875,0v70.2813h.0312v-70.2813h-.0312zm.25,0v70.2813h.1875v-70.2813h-.1875zm.34375,0v70.2813h.15625v-70.2813h-.15625zm.25,0v70.2813h.25v-70.2813h-.25zm.5,0v70.2813h.0625v-70.2813h-.0625zm.15625,0v70.2813h.0937v-70.2813h-.0937zm3.53125,0v70.2813h.125v-70.2813h-.125zm.21875,0v70.2813h.15625v-70.2813h-.15625zm.3125,0v70.2813h.21875v-70.2813h-.21875zm.5625,0v70.2813h.1875v-70.2813h-.1875zm.28125,0v70.2813h.0312v-70.2813h-.0312zm.21875,0v70.2813h.21875v-70.2813h-.21875zm.375,0v70.2813h.15625v-70.2813h-.15625zm.25,0v70.2813h.21875v-70.2813h-.21875zm.5625,0v70.2813h.21875v-70.2813h-.21875zm.65625,0v70.2813h.15625v-70.2813h-.15625zm.21875,0v70.2813h.125v-70.2813h-.125zm.4375,0v70.2813h.25v-70.2813h-.25zm.34375,0v70.2813h.1875v-70.2813h-.1875zm.625,0v70.2813h.28125v-70.2813h-.28125zm.5,0v70.2813h.0937v-70.2813h-.0937zm.15625,0v70.2813h.0625v-70.2813h-.0625zm.25,0v70.2813h.21875v-70.2813h-.21875zm.34375,0v70.2813h.15625v-70.2813h-.15625zm.25,0v70.2813h.28125v-70.2813h-.28125zm.5,0v70.2813h.0625v-70.2813h-.0625zm.15625,0v70.2813h.0937v-70.2813h-.0937zm3.5625,0v70.2813h.0937v-70.2813h-.0937zm.1875,0v70.2813h.15625v-70.2813h-.15625zm.3125,0v70.2813h.21875v-70.2813h-.21875zm.5625,0v70.2813h.1875v-70.2813h-.1875zm.28125,0v70.2813h.0625v-70.2813h-.0625zm.25,0v70.2813h.21875v-70.2813h-.21875zm.34375,0v70.2813h.15625v-70.2813h-.15625zm.25,0v70.2813h.21875v-70.2813h-.21875zm.5625,0v70.2813h.21875v-70.2813h-.21875zm.65625,0v70.2813h.15625v-70.2813h-.15625zm.25,0v70.2813h.0937v-70.2813h-.0937zm.40625,0v70.2813h.25v-70.2813h-.25zm.34375,0v70.2813h.1875v-70.2813h-.1875zm.625,0v70.2813h.28125v-70.2813h-.28125zm.5,0v70.2813h.0937v-70.2813h-.0937zm.1875,0v70.2813h.0312v-70.2813h-.0312zm.21875,0v70.2813h.21875v-70.2813h-.21875zm.34375,0v70.2813h.1875v-70.2813h-.1875zm.25,0v70.2813h.28125v-70.2813h-.28125zm.53125,0v70.2813h.0625v-70.2813h-.0625zm.125,0v70.2813h.0937v-70.2813h-.0937z" fill="url(#i)"/>
  </g>
  <g transform="matrix(.81074 0 0 .87382 486.16 864.47)">
   <path d="m417.88 671.62c-0.0893 5e-5 -0.17307 4e-3 -0.26154 0.01-0.42469 0.0288-0.83512 0.13069-1.2205 0.32529-1.3908 0.7023-2.6119 2.2018-3.1869 3.8939-1.195 3.517-1.1979 7.8983 0 11.414 0.57522 1.6882 1.4182 3.8748 3.1869 3.8748h11.576c1.7687 0 3.1966-1.7246 3.1966-3.8748 0 0 0.51149-5.397-0.60058-7.52-2.253-4.3011-6.784-6.4413-10.83-7.7879-0.587-0.19537-1.235-0.33521-1.8598-0.33485zm35.86 0.01c-0.57202 0.0202-1.1585 0.14667-1.6952 0.32529-4.0457 1.3466-8.5767 3.4867-10.83 7.7879-1.1121 2.123-0.60058 7.52-0.60058 7.52 0 2.1502 1.4279 3.8748 3.1966 3.8748h11.576c1.7687 0 2.6117-2.1866 3.1869-3.8748 1.1979-3.5156 1.195-7.8969 0-11.414-0.57499-1.6922-1.7961-3.1916-3.1869-3.8939-0.51388-0.25946-1.0747-0.34549-1.6467-0.32529zm-32.77 5.4726c0.42898-2.3e-4 0.86595 0.0918 1.269 0.22005 2.7776 0.8839 5.8925 2.2857 7.4394 5.109 0.7635 1.3935 0.40684 4.9368 0.40684 4.9368 0 1.4114-0.97486 2.5449-2.1892 2.5449h-7.9431c-1.2143 0-1.7943-1.4368-2.1892-2.5449-0.82241-2.3076-0.82046-5.1827 0-7.4913 0.39476-1.1107 1.2343-2.0935 2.1892-2.5545 0.2646-0.12773 0.54148-0.19162 0.83305-0.21048l0.18404-0.01zm29.845 0 0.18405 0.01c0.29157 0.0188 0.56845 0.0828 0.83305 0.21049 0.9549 0.46098 1.7944 1.4438 2.1892 2.5545 0.82047 2.3086 0.82241 5.1836 0 7.4913-0.39492 1.1081-0.97486 2.5449-2.1892 2.5449h-7.9431c-1.2143 0-2.1892-1.1336-2.1892-2.5449 0 0-0.35666-3.5433 0.40684-4.9368 1.5468-2.8232 4.6521-4.2251 7.4297-5.109 0.40302-0.12825 0.84967-0.22029 1.2786-0.22005zm-17.698 1.6934c-0.72553 0-1.3602 0.38886-1.763 0.99501 0.16799 0.24703 0.32575 0.50125 0.47465 0.76539 1.1121 1.9727 0.61026 6.9842 0.61026 6.9842 0 1.0614-0.39561 2.0117-1.0365 2.6693 0.40465 0.56906 1.0152 0.92803 1.7145 0.92803h5.5408c0.70219 0 1.3294-0.35497 1.7339-0.92803-0.64086-0.65761-1.0462-1.6079-1.0462-2.6693 0 0-0.5115-5.0114 0.60057-6.9842 0.15022-0.26647 0.3147-0.51632 0.48434-0.76539-0.40274-0.60615-1.0471-0.99501-1.7727-0.99501h-5.5408z" fill="url(#h)"/>
   <path d="m409.8 692.66c-4.6282 0-8.3637-0.048-8.3637 5.8756v18.45h68.919v-18.45c0-5.9236-3.7355-5.8756-8.3637-5.8756h-52.191z" fill="url(#g)"/>
   <path d="m470.35 700.16h-68.919v13.824h68.919v-13.824z" fill="url(#f)"/>
   <path d="m401.43 701.52v1.2518h68.92v-1.2518h-68.92zm0 9.8592v1.2518h68.92v-1.2518h-68.92z" fill="#fff" opacity=".51923"/>
  </g>
  <g transform="matrix(.2953 0 0 .2593 597.97 1328.6)">
   <g transform="translate(-1.0533,.01032)">
    <g transform="translate(-18.177)">
     <path d="m954.95 818.57v160.82h227.13v-160.82h-227.13z" fill="#fea"/>
     <path transform="translate(0 452.36)" d="m967.16 366.22-4.0625 3.0625 4.4688 13.875-11.938-8.3438-0.6875 0.5v25.719l3.0312-0.0625 3.5938-10.938 3.7188 10.906h11.531l-9.1875 6.9375 3.5312 10.938-9.4062-6.5938-6.8125 4.9062v9.875l0.4375-1.3438 4.75 13.812 14.625 0.0312-11.656 8.7812 4.4688 13.875-11.938-8.3438-0.6875 0.5v25.719l3.0312-0.0625 3.5938-10.938 3.7188 10.906h11.531l-9.1875 6.9375 3.5312 10.938-9.4062-6.5938-6.8125 4.9062v9.875l0.4375-1.3438 4.75 13.812 14.625 0.0312-11.312 8.5312h29.312l-11.281-8.25 14.562-0.25 4.5626-13.875 4.75 13.812 14.594 0.0312-11.281 8.5312h29.313l-11.281-8.25 14.562-0.25 4.5625-13.875 4.75 13.812 14.594 0.0312-11.281 8.5312h29.312l-11.312-8.25 14.594-0.25 4.5624-13.875 4.75 13.812 14.594 0.0312-11.312 8.5312h29.344l-11.312-8.25 14.594-0.25 4.5625-13.875 4.75 13.812 14.562 0.0312-11.281 8.5312h29.344l-11.312-8.25 14.594-0.25 4.5626-13.875 0.625 1.8125v-10.625l-6.625-4.625-9.3126 6.75 3.3438-11-9.25-6.7812 11.5-0.21875 3.5625-10.938 3.75 10.906h3.0313v-25.812l-0.4376-0.3125-11.844 8.5312 4.3125-13.938-11.812-8.625 14.594-0.25 4.5626-13.875 0.625 1.8125v-10.625l-6.625-4.625-9.3126 6.75 3.3438-11-9.25-6.7812 11.5-0.21875 3.5625-10.938 3.75 10.906h3.0313v-25.812l-0.4376-0.3125-11.844 8.5312 4.3125-13.938-4.375-3.1875h-21.75l-4.0625 3.0625 4.4687 13.875-11.969-8.3438-11.812 8.5312 4.2812-13.938-4.375-3.1875h-21.75l-4.0624 3.0625 4.4687 13.875-11.969-8.3438-11.781 8.5312 4.25-13.938-4.375-3.1875h-21.719l-4.0626 3.0625 4.4688 13.875-11.969-8.3438-11.812 8.5312 4.25-13.938-4.375-3.1875h-21.719l-4.0625 3.0625 4.4687 13.875-11.969-8.3438-11.812 8.5312 4.25-13.938-4.375-3.1875h-21.719zm30.031 23.812 3.75 10.906h11.469l-9.1562 6.9375 3.5312 10.938-9.4062-6.5938-9.3438 6.75 3.375-11-9.3125-6.7812 11.5-0.21875 3.5938-10.938zm35.625 0 3.75 10.906h11.469l-9.1562 6.9375 3.5312 10.938-9.4062-6.5938-9.3125 6.75 3.3437-11-9.3124-6.7812 11.5-0.21875 3.5937-10.938zm35.625 0 3.75 10.906h11.5l-9.1875 6.9375 3.5312 10.938-9.4374-6.5938-9.2813 6.75 3.3437-11-9.2812-6.7812 11.469-0.21875 3.5937-10.938zm35.625 0 3.75 10.906h11.5l-9.1875 6.9375 3.5312 10.938-9.4374-6.5938-9.3126 6.75 3.375-11-9.2812-6.7812 11.469-0.21875 3.5937-10.938zm35.625 0 3.75 10.906h11.5l-9.1875 6.9375 3.5312 10.938-9.4374-6.5938-9.3126 6.75 3.375-11-9.2812-6.7812 11.469-0.21875 3.5937-10.938zm-184.75 17.312v3.375l0.84375-2.75-0.84375-0.625zm227.16 0-0.7188 0.53125 0.7188 2.2188v-2.75zm-181.5 18.312 4.75 13.812 14.594 0.0312-11.625 8.7812 4.4687 13.875-11.969-8.3438-11.812 8.5312 4.25-13.938-11.781-8.625 14.562-0.25 4.5626-13.875zm45.219 0 4.75 13.812 14.594 0.0312-11.625 8.7812 4.4688 13.875-11.969-8.3438-11.812 8.5312 4.25-13.938-11.781-8.625 14.562-0.25 4.5625-13.875zm45.219 0 4.75 13.812 14.594 0.0312-11.656 8.7812 4.4687 13.875-11.969-8.3438-11.781 8.5312 4.25-13.938-11.812-8.625 14.594-0.25 4.5624-13.875zm45.219 0 4.75 13.812 14.562 0.0312-11.625 8.7812 4.4687 13.875-11.969-8.3438-11.812 8.5312 4.2812-13.938-11.812-8.625 14.594-0.25 4.5625-13.875zm-139.06 43.375 3.75 10.906h11.469l-9.1562 6.9375 3.5312 10.938-9.4062-6.5938-9.3438 6.75 3.375-11-9.3125-6.7812 11.5-0.21875 3.5938-10.938zm35.625 0 3.75 10.906h11.469l-9.1562 6.9375 3.5312 10.938-9.4062-6.5938-9.3125 6.75 3.3437-11-9.3124-6.7812 11.5-0.21875 3.5937-10.938zm35.625 0 3.75 10.906h11.5l-9.1875 6.9375 3.5312 10.938-9.4374-6.5938-9.2813 6.75 3.3437-11-9.2812-6.7812 11.469-0.21875 3.5937-10.938zm35.625 0 3.75 10.906h11.5l-9.1875 6.9375 3.5312 10.938-9.4374-6.5938-9.3126 6.75 3.375-11-9.2812-6.7812 11.469-0.21875 3.5937-10.938zm35.625 0 3.75 10.906h11.5l-9.1875 6.9375 3.5312 10.938-9.4374-6.5938-9.3126 6.75 3.375-11-9.2812-6.7812 11.469-0.21875 3.5937-10.938zm-184.75 17.312v3.375l0.84375-2.75-0.84375-0.625zm227.16 0-0.7188 0.53125 0.7188 2.2188v-2.75z" fill="url(#e)"/>
    </g>
    <path d="m960.38 754.36c-15.955 0-28.833 11.267-28.833 25.223v32.086h237.59v-32.086c0-13.956-12.878-25.223-28.833-25.223h-179.92z" fill="url(#d)"/>
   </g>
   <g transform="matrix(1.2153 0 0 1 -504.94 -4.2133)">
    <path d="m1261.8 758.58v57.353h34.251v-57.353h-34.251zm3.4393 64.216v160.82h27.42v-160.82h-27.42z" fill="url(#c)"/>
    <path d="m1265.1 758.58v57.353h3.7691v-57.353h-3.7691zm23.792 0v57.353h3.8162v-57.353h-3.8162zm-21.06 64.216v160.82h3.0152v-160.82h-3.0152zm19.034 0v160.82h3.0623v-160.82h-3.0623z" fill="#fff" opacity=".5"/>
   </g>
   <path d="m990.84 689.09c-0.28961 1.5e-4 -0.56153 0.0106-0.84859 0.0291-1.3779 0.0873-2.7096 0.39681-3.9601 0.98768-4.5128 2.1323-8.4746 6.6852-10.34 11.823-3.8774 10.679-3.8866 23.981 0 34.656 1.8664 5.1257 4.6015 11.765 10.34 11.765h37.558c5.7388 0 10.372-5.2365 10.372-11.765 0 0 1.6597-16.387-1.9485-22.833-7.3103-13.059-22.011-19.557-35.138-23.646-1.9045-0.59321-4.0071-1.0178-6.0344-1.0167zm116.35 0.0291c-1.856 0.0613-3.7589 0.44531-5.5001 0.98768-13.127 4.0886-27.828 10.587-35.138 23.646-3.6081 6.4459-1.9485 22.833-1.9485 22.833 0 6.5284 4.6328 11.765 10.372 11.765h37.558c5.7386 0 8.4739-6.6392 10.34-11.765 3.8866-10.674 3.8774-23.977 0-34.656-1.8656-5.1379-5.8275-9.6907-10.34-11.823-1.6674-0.78781-3.4871-1.049-5.343-0.98768zm-106.33 16.616c1.3918-7.2e-4 2.8097 0.27875 4.1172 0.66814 9.0121 2.6838 19.119 6.9401 24.138 15.512 2.4772 4.2311 1.32 14.989 1.32 14.989 0 4.2853-3.163 7.7271-7.103 7.7271h-25.772c-3.9399 0-5.8216-4.3626-7.103-7.7271-2.6684-7.0066-2.6621-15.736 0-22.746 1.2808-3.3725 4.0048-6.3565 7.103-7.7561 0.85851-0.38784 1.757-0.58183 2.703-0.63909 0.197-0.0122 0.3982-0.029 0.5971-0.0291zm96.834 0c0.1989 1.1e-4 0.4001 0.0168 0.5972 0.0291 0.946 0.0572 1.8444 0.25125 2.7029 0.63909 3.0982 1.3997 5.8222 4.3836 7.103 7.7561 2.6621 7.0095 2.6684 15.739 0 22.746-1.2813 3.3646-3.163 7.7271-7.103 7.7271h-25.772c-3.94 0-7.103-3.4418-7.103-7.7271 0 0-1.1572-10.758 1.32-14.989 5.0189-8.5722 15.094-12.829 24.106-15.512 1.3077-0.38938 2.7569-0.66885 4.1487-0.66814zm-57.421 5.1417c-2.354 0-4.4133 1.1807-5.72 3.0211 0.5449 0.75006 1.0569 1.522 1.54 2.3239 3.6081 5.9898 1.98 21.206 1.98 21.206 0 3.2228-1.2836 6.1081-3.3629 8.1047 1.3129 1.7278 3.2939 2.8178 5.5629 2.8178h17.978c2.2783 0 4.3133-1.0778 5.6258-2.8178-2.0792-1.9967-3.3943-4.8819-3.3943-8.1047 0 0-1.6596-15.216 1.9486-21.206 0.4873-0.80907 1.0211-1.5677 1.5714-2.3239-1.3066-1.8404-3.3974-3.0211-5.7515-3.0211h-17.978z" fill="url(#b)"/>
  </g>
 </g>
</svg>
